<?xml version="1.0" encoding="UTF-8"?><svg xmlns="http://www.w3.org/2000/svg" xmlns:xlink="http://www.w3.org/1999/xlink" width="375" zoomAndPan="magnify" viewBox="0 0 375 374.999991" height="374.999991" preserveAspectRatio="xMidYMid meet" version="1.0"><defs><clipPath id="clip-0"><path d="M 80 173 L 107 173 L 107 189 L 80 189 Z M 80 173 " clip-rule="nonzero"/></clipPath><clipPath id="clip-1"><path d="M 149.179688 115.027344 L 222.898438 188.746094 L 151.832031 259.808594 L 78.117188 186.09375 Z M 149.179688 115.027344 " clip-rule="nonzero"/></clipPath><clipPath id="clip-2"><path d="M 149.179688 115.027344 L 222.898438 188.746094 L 151.832031 259.808594 L 78.117188 186.09375 Z M 149.179688 115.027344 " clip-rule="nonzero"/></clipPath><clipPath id="clip-3"><path d="M 90 173 L 117 173 L 117 189 L 90 189 Z M 90 173 " clip-rule="nonzero"/></clipPath><clipPath id="clip-4"><path d="M 149.179688 115.027344 L 222.898438 188.746094 L 151.832031 259.808594 L 78.117188 186.09375 Z M 149.179688 115.027344 " clip-rule="nonzero"/></clipPath><clipPath id="clip-5"><path d="M 149.179688 115.027344 L 222.898438 188.746094 L 151.832031 259.808594 L 78.117188 186.09375 Z M 149.179688 115.027344 " clip-rule="nonzero"/></clipPath><clipPath id="clip-6"><path d="M 101 173 L 127 173 L 127 190 L 101 190 Z M 101 173 " clip-rule="nonzero"/></clipPath><clipPath id="clip-7"><path d="M 149.179688 115.027344 L 222.898438 188.746094 L 151.832031 259.808594 L 78.117188 186.09375 Z M 149.179688 115.027344 " clip-rule="nonzero"/></clipPath><clipPath id="clip-8"><path d="M 149.179688 115.027344 L 222.898438 188.746094 L 151.832031 259.808594 L 78.117188 186.09375 Z M 149.179688 115.027344 " clip-rule="nonzero"/></clipPath><clipPath id="clip-9"><path d="M 121 174 L 148 174 L 148 190 L 121 190 Z M 121 174 " clip-rule="nonzero"/></clipPath><clipPath id="clip-10"><path d="M 149.179688 115.027344 L 222.898438 188.746094 L 151.832031 259.808594 L 78.117188 186.09375 Z M 149.179688 115.027344 " clip-rule="nonzero"/></clipPath><clipPath id="clip-11"><path d="M 149.179688 115.027344 L 222.898438 188.746094 L 151.832031 259.808594 L 78.117188 186.09375 Z M 149.179688 115.027344 " clip-rule="nonzero"/></clipPath><clipPath id="clip-12"><path d="M 131 174 L 158 174 L 158 190 L 131 190 Z M 131 174 " clip-rule="nonzero"/></clipPath><clipPath id="clip-13"><path d="M 149.179688 115.027344 L 222.898438 188.746094 L 151.832031 259.808594 L 78.117188 186.09375 Z M 149.179688 115.027344 " clip-rule="nonzero"/></clipPath><clipPath id="clip-14"><path d="M 149.179688 115.027344 L 222.898438 188.746094 L 151.832031 259.808594 L 78.117188 186.09375 Z M 149.179688 115.027344 " clip-rule="nonzero"/></clipPath><clipPath id="clip-15"><path d="M 143 174 L 169 174 L 169 191 L 143 191 Z M 143 174 " clip-rule="nonzero"/></clipPath><clipPath id="clip-16"><path d="M 149.179688 115.027344 L 222.898438 188.746094 L 151.832031 259.808594 L 78.117188 186.09375 Z M 149.179688 115.027344 " clip-rule="nonzero"/></clipPath><clipPath id="clip-17"><path d="M 149.179688 115.027344 L 222.898438 188.746094 L 151.832031 259.808594 L 78.117188 186.09375 Z M 149.179688 115.027344 " clip-rule="nonzero"/></clipPath><clipPath id="clip-18"><path d="M 163 175 L 190 175 L 190 191 L 163 191 Z M 163 175 " clip-rule="nonzero"/></clipPath><clipPath id="clip-19"><path d="M 149.179688 115.027344 L 222.898438 188.746094 L 151.832031 259.808594 L 78.117188 186.09375 Z M 149.179688 115.027344 " clip-rule="nonzero"/></clipPath><clipPath id="clip-20"><path d="M 149.179688 115.027344 L 222.898438 188.746094 L 151.832031 259.808594 L 78.117188 186.09375 Z M 149.179688 115.027344 " clip-rule="nonzero"/></clipPath><clipPath id="clip-21"><path d="M 173 175 L 200 175 L 200 191 L 173 191 Z M 173 175 " clip-rule="nonzero"/></clipPath><clipPath id="clip-22"><path d="M 149.179688 115.027344 L 222.898438 188.746094 L 151.832031 259.808594 L 78.117188 186.09375 Z M 149.179688 115.027344 " clip-rule="nonzero"/></clipPath><clipPath id="clip-23"><path d="M 149.179688 115.027344 L 222.898438 188.746094 L 151.832031 259.808594 L 78.117188 186.09375 Z M 149.179688 115.027344 " clip-rule="nonzero"/></clipPath><clipPath id="clip-24"><path d="M 185 175 L 211 175 L 211 192 L 185 192 Z M 185 175 " clip-rule="nonzero"/></clipPath><clipPath id="clip-25"><path d="M 149.179688 115.027344 L 222.898438 188.746094 L 151.832031 259.808594 L 78.117188 186.09375 Z M 149.179688 115.027344 " clip-rule="nonzero"/></clipPath><clipPath id="clip-26"><path d="M 149.179688 115.027344 L 222.898438 188.746094 L 151.832031 259.808594 L 78.117188 186.09375 Z M 149.179688 115.027344 " clip-rule="nonzero"/></clipPath><clipPath id="clip-27"><path d="M 93 182 L 95 182 L 95 189 L 93 189 Z M 93 182 " clip-rule="nonzero"/></clipPath><clipPath id="clip-28"><path d="M 149.179688 115.027344 L 222.898438 188.746094 L 151.832031 259.808594 L 78.117188 186.09375 Z M 149.179688 115.027344 " clip-rule="nonzero"/></clipPath><clipPath id="clip-29"><path d="M 149.179688 115.027344 L 222.898438 188.746094 L 151.832031 259.808594 L 78.117188 186.09375 Z M 149.179688 115.027344 " clip-rule="nonzero"/></clipPath><clipPath id="clip-30"><path d="M 96 178 L 98 178 L 98 188 L 96 188 Z M 96 178 " clip-rule="nonzero"/></clipPath><clipPath id="clip-31"><path d="M 149.179688 115.027344 L 222.898438 188.746094 L 151.832031 259.808594 L 78.117188 186.09375 Z M 149.179688 115.027344 " clip-rule="nonzero"/></clipPath><clipPath id="clip-32"><path d="M 149.179688 115.027344 L 222.898438 188.746094 L 151.832031 259.808594 L 78.117188 186.09375 Z M 149.179688 115.027344 " clip-rule="nonzero"/></clipPath><clipPath id="clip-33"><path d="M 99 174 L 101 174 L 101 186 L 99 186 Z M 99 174 " clip-rule="nonzero"/></clipPath><clipPath id="clip-34"><path d="M 149.179688 115.027344 L 222.898438 188.746094 L 151.832031 259.808594 L 78.117188 186.09375 Z M 149.179688 115.027344 " clip-rule="nonzero"/></clipPath><clipPath id="clip-35"><path d="M 149.179688 115.027344 L 222.898438 188.746094 L 151.832031 259.808594 L 78.117188 186.09375 Z M 149.179688 115.027344 " clip-rule="nonzero"/></clipPath><clipPath id="clip-36"><path d="M 102 173 L 104 173 L 104 182 L 102 182 Z M 102 173 " clip-rule="nonzero"/></clipPath><clipPath id="clip-37"><path d="M 149.179688 115.027344 L 222.898438 188.746094 L 151.832031 259.808594 L 78.117188 186.09375 Z M 149.179688 115.027344 " clip-rule="nonzero"/></clipPath><clipPath id="clip-38"><path d="M 149.179688 115.027344 L 222.898438 188.746094 L 151.832031 259.808594 L 78.117188 186.09375 Z M 149.179688 115.027344 " clip-rule="nonzero"/></clipPath><clipPath id="clip-39"><path d="M 122 180 L 124 180 L 124 190 L 122 190 Z M 122 180 " clip-rule="nonzero"/></clipPath><clipPath id="clip-40"><path d="M 149.179688 115.027344 L 222.898438 188.746094 L 151.832031 259.808594 L 78.117188 186.09375 Z M 149.179688 115.027344 " clip-rule="nonzero"/></clipPath><clipPath id="clip-41"><path d="M 149.179688 115.027344 L 222.898438 188.746094 L 151.832031 259.808594 L 78.117188 186.09375 Z M 149.179688 115.027344 " clip-rule="nonzero"/></clipPath><clipPath id="clip-42"><path d="M 119 176 L 121 176 L 121 189 L 119 189 Z M 119 176 " clip-rule="nonzero"/></clipPath><clipPath id="clip-43"><path d="M 149.179688 115.027344 L 222.898438 188.746094 L 151.832031 259.808594 L 78.117188 186.09375 Z M 149.179688 115.027344 " clip-rule="nonzero"/></clipPath><clipPath id="clip-44"><path d="M 149.179688 115.027344 L 222.898438 188.746094 L 151.832031 259.808594 L 78.117188 186.09375 Z M 149.179688 115.027344 " clip-rule="nonzero"/></clipPath><clipPath id="clip-45"><path d="M 116 174 L 118 174 L 118 186 L 116 186 Z M 116 174 " clip-rule="nonzero"/></clipPath><clipPath id="clip-46"><path d="M 149.179688 115.027344 L 222.898438 188.746094 L 151.832031 259.808594 L 78.117188 186.09375 Z M 149.179688 115.027344 " clip-rule="nonzero"/></clipPath><clipPath id="clip-47"><path d="M 149.179688 115.027344 L 222.898438 188.746094 L 151.832031 259.808594 L 78.117188 186.09375 Z M 149.179688 115.027344 " clip-rule="nonzero"/></clipPath><clipPath id="clip-48"><path d="M 113 173 L 115 173 L 115 182 L 113 182 Z M 113 173 " clip-rule="nonzero"/></clipPath><clipPath id="clip-49"><path d="M 149.179688 115.027344 L 222.898438 188.746094 L 151.832031 259.808594 L 78.117188 186.09375 Z M 149.179688 115.027344 " clip-rule="nonzero"/></clipPath><clipPath id="clip-50"><path d="M 149.179688 115.027344 L 222.898438 188.746094 L 151.832031 259.808594 L 78.117188 186.09375 Z M 149.179688 115.027344 " clip-rule="nonzero"/></clipPath><clipPath id="clip-51"><path d="M 134 183 L 137 183 L 137 190 L 134 190 Z M 134 183 " clip-rule="nonzero"/></clipPath><clipPath id="clip-52"><path d="M 149.179688 115.027344 L 222.898438 188.746094 L 151.832031 259.808594 L 78.117188 186.09375 Z M 149.179688 115.027344 " clip-rule="nonzero"/></clipPath><clipPath id="clip-53"><path d="M 149.179688 115.027344 L 222.898438 188.746094 L 151.832031 259.808594 L 78.117188 186.09375 Z M 149.179688 115.027344 " clip-rule="nonzero"/></clipPath><clipPath id="clip-54"><path d="M 138 179 L 140 179 L 140 189 L 138 189 Z M 138 179 " clip-rule="nonzero"/></clipPath><clipPath id="clip-55"><path d="M 149.179688 115.027344 L 222.898438 188.746094 L 151.832031 259.808594 L 78.117188 186.09375 Z M 149.179688 115.027344 " clip-rule="nonzero"/></clipPath><clipPath id="clip-56"><path d="M 149.179688 115.027344 L 222.898438 188.746094 L 151.832031 259.808594 L 78.117188 186.09375 Z M 149.179688 115.027344 " clip-rule="nonzero"/></clipPath><clipPath id="clip-57"><path d="M 141 175 L 143 175 L 143 187 L 141 187 Z M 141 175 " clip-rule="nonzero"/></clipPath><clipPath id="clip-58"><path d="M 149.179688 115.027344 L 222.898438 188.746094 L 151.832031 259.808594 L 78.117188 186.09375 Z M 149.179688 115.027344 " clip-rule="nonzero"/></clipPath><clipPath id="clip-59"><path d="M 149.179688 115.027344 L 222.898438 188.746094 L 151.832031 259.808594 L 78.117188 186.09375 Z M 149.179688 115.027344 " clip-rule="nonzero"/></clipPath><clipPath id="clip-60"><path d="M 144 174 L 146 174 L 146 183 L 144 183 Z M 144 174 " clip-rule="nonzero"/></clipPath><clipPath id="clip-61"><path d="M 149.179688 115.027344 L 222.898438 188.746094 L 151.832031 259.808594 L 78.117188 186.09375 Z M 149.179688 115.027344 " clip-rule="nonzero"/></clipPath><clipPath id="clip-62"><path d="M 149.179688 115.027344 L 222.898438 188.746094 L 151.832031 259.808594 L 78.117188 186.09375 Z M 149.179688 115.027344 " clip-rule="nonzero"/></clipPath><clipPath id="clip-63"><path d="M 164 181 L 166 181 L 166 190 L 164 190 Z M 164 181 " clip-rule="nonzero"/></clipPath><clipPath id="clip-64"><path d="M 149.179688 115.027344 L 222.898438 188.746094 L 151.832031 259.808594 L 78.117188 186.09375 Z M 149.179688 115.027344 " clip-rule="nonzero"/></clipPath><clipPath id="clip-65"><path d="M 149.179688 115.027344 L 222.898438 188.746094 L 151.832031 259.808594 L 78.117188 186.09375 Z M 149.179688 115.027344 " clip-rule="nonzero"/></clipPath><clipPath id="clip-66"><path d="M 161 177 L 163 177 L 163 190 L 161 190 Z M 161 177 " clip-rule="nonzero"/></clipPath><clipPath id="clip-67"><path d="M 149.179688 115.027344 L 222.898438 188.746094 L 151.832031 259.808594 L 78.117188 186.09375 Z M 149.179688 115.027344 " clip-rule="nonzero"/></clipPath><clipPath id="clip-68"><path d="M 149.179688 115.027344 L 222.898438 188.746094 L 151.832031 259.808594 L 78.117188 186.09375 Z M 149.179688 115.027344 " clip-rule="nonzero"/></clipPath><clipPath id="clip-69"><path d="M 158 175 L 160 175 L 160 187 L 158 187 Z M 158 175 " clip-rule="nonzero"/></clipPath><clipPath id="clip-70"><path d="M 149.179688 115.027344 L 222.898438 188.746094 L 151.832031 259.808594 L 78.117188 186.09375 Z M 149.179688 115.027344 " clip-rule="nonzero"/></clipPath><clipPath id="clip-71"><path d="M 149.179688 115.027344 L 222.898438 188.746094 L 151.832031 259.808594 L 78.117188 186.09375 Z M 149.179688 115.027344 " clip-rule="nonzero"/></clipPath><clipPath id="clip-72"><path d="M 155 174 L 157 174 L 157 183 L 155 183 Z M 155 174 " clip-rule="nonzero"/></clipPath><clipPath id="clip-73"><path d="M 149.179688 115.027344 L 222.898438 188.746094 L 151.832031 259.808594 L 78.117188 186.09375 Z M 149.179688 115.027344 " clip-rule="nonzero"/></clipPath><clipPath id="clip-74"><path d="M 149.179688 115.027344 L 222.898438 188.746094 L 151.832031 259.808594 L 78.117188 186.09375 Z M 149.179688 115.027344 " clip-rule="nonzero"/></clipPath><clipPath id="clip-75"><path d="M 176 184 L 178 184 L 178 191 L 176 191 Z M 176 184 " clip-rule="nonzero"/></clipPath><clipPath id="clip-76"><path d="M 149.179688 115.027344 L 222.898438 188.746094 L 151.832031 259.808594 L 78.117188 186.09375 Z M 149.179688 115.027344 " clip-rule="nonzero"/></clipPath><clipPath id="clip-77"><path d="M 149.179688 115.027344 L 222.898438 188.746094 L 151.832031 259.808594 L 78.117188 186.09375 Z M 149.179688 115.027344 " clip-rule="nonzero"/></clipPath><clipPath id="clip-78"><path d="M 179 180 L 182 180 L 182 190 L 179 190 Z M 179 180 " clip-rule="nonzero"/></clipPath><clipPath id="clip-79"><path d="M 149.179688 115.027344 L 222.898438 188.746094 L 151.832031 259.808594 L 78.117188 186.09375 Z M 149.179688 115.027344 " clip-rule="nonzero"/></clipPath><clipPath id="clip-80"><path d="M 149.179688 115.027344 L 222.898438 188.746094 L 151.832031 259.808594 L 78.117188 186.09375 Z M 149.179688 115.027344 " clip-rule="nonzero"/></clipPath><clipPath id="clip-81"><path d="M 183 176 L 185 176 L 185 188 L 183 188 Z M 183 176 " clip-rule="nonzero"/></clipPath><clipPath id="clip-82"><path d="M 149.179688 115.027344 L 222.898438 188.746094 L 151.832031 259.808594 L 78.117188 186.09375 Z M 149.179688 115.027344 " clip-rule="nonzero"/></clipPath><clipPath id="clip-83"><path d="M 149.179688 115.027344 L 222.898438 188.746094 L 151.832031 259.808594 L 78.117188 186.09375 Z M 149.179688 115.027344 " clip-rule="nonzero"/></clipPath><clipPath id="clip-84"><path d="M 186 175 L 188 175 L 188 184 L 186 184 Z M 186 175 " clip-rule="nonzero"/></clipPath><clipPath id="clip-85"><path d="M 149.179688 115.027344 L 222.898438 188.746094 L 151.832031 259.808594 L 78.117188 186.09375 Z M 149.179688 115.027344 " clip-rule="nonzero"/></clipPath><clipPath id="clip-86"><path d="M 149.179688 115.027344 L 222.898438 188.746094 L 151.832031 259.808594 L 78.117188 186.09375 Z M 149.179688 115.027344 " clip-rule="nonzero"/></clipPath><clipPath id="clip-87"><path d="M 206 182 L 208 182 L 208 191 L 206 191 Z M 206 182 " clip-rule="nonzero"/></clipPath><clipPath id="clip-88"><path d="M 149.179688 115.027344 L 222.898438 188.746094 L 151.832031 259.808594 L 78.117188 186.09375 Z M 149.179688 115.027344 " clip-rule="nonzero"/></clipPath><clipPath id="clip-89"><path d="M 149.179688 115.027344 L 222.898438 188.746094 L 151.832031 259.808594 L 78.117188 186.09375 Z M 149.179688 115.027344 " clip-rule="nonzero"/></clipPath><clipPath id="clip-90"><path d="M 203 178 L 205 178 L 205 191 L 203 191 Z M 203 178 " clip-rule="nonzero"/></clipPath><clipPath id="clip-91"><path d="M 149.179688 115.027344 L 222.898438 188.746094 L 151.832031 259.808594 L 78.117188 186.09375 Z M 149.179688 115.027344 " clip-rule="nonzero"/></clipPath><clipPath id="clip-92"><path d="M 149.179688 115.027344 L 222.898438 188.746094 L 151.832031 259.808594 L 78.117188 186.09375 Z M 149.179688 115.027344 " clip-rule="nonzero"/></clipPath><clipPath id="clip-93"><path d="M 200 176 L 202 176 L 202 188 L 200 188 Z M 200 176 " clip-rule="nonzero"/></clipPath><clipPath id="clip-94"><path d="M 149.179688 115.027344 L 222.898438 188.746094 L 151.832031 259.808594 L 78.117188 186.09375 Z M 149.179688 115.027344 " clip-rule="nonzero"/></clipPath><clipPath id="clip-95"><path d="M 149.179688 115.027344 L 222.898438 188.746094 L 151.832031 259.808594 L 78.117188 186.09375 Z M 149.179688 115.027344 " clip-rule="nonzero"/></clipPath><clipPath id="clip-96"><path d="M 197 175 L 199 175 L 199 184 L 197 184 Z M 197 175 " clip-rule="nonzero"/></clipPath><clipPath id="clip-97"><path d="M 149.179688 115.027344 L 222.898438 188.746094 L 151.832031 259.808594 L 78.117188 186.09375 Z M 149.179688 115.027344 " clip-rule="nonzero"/></clipPath><clipPath id="clip-98"><path d="M 149.179688 115.027344 L 222.898438 188.746094 L 151.832031 259.808594 L 78.117188 186.09375 Z M 149.179688 115.027344 " clip-rule="nonzero"/></clipPath><clipPath id="clip-99"><path d="M 111 173 L 137 173 L 137 190 L 111 190 Z M 111 173 " clip-rule="nonzero"/></clipPath><clipPath id="clip-100"><path d="M 149.179688 115.027344 L 222.898438 188.746094 L 151.832031 259.808594 L 78.117188 186.09375 Z M 149.179688 115.027344 " clip-rule="nonzero"/></clipPath><clipPath id="clip-101"><path d="M 149.179688 115.027344 L 222.898438 188.746094 L 151.832031 259.808594 L 78.117188 186.09375 Z M 149.179688 115.027344 " clip-rule="nonzero"/></clipPath><clipPath id="clip-102"><path d="M 153 174 L 179 174 L 179 191 L 153 191 Z M 153 174 " clip-rule="nonzero"/></clipPath><clipPath id="clip-103"><path d="M 149.179688 115.027344 L 222.898438 188.746094 L 151.832031 259.808594 L 78.117188 186.09375 Z M 149.179688 115.027344 " clip-rule="nonzero"/></clipPath><clipPath id="clip-104"><path d="M 149.179688 115.027344 L 222.898438 188.746094 L 151.832031 259.808594 L 78.117188 186.09375 Z M 149.179688 115.027344 " clip-rule="nonzero"/></clipPath><clipPath id="clip-105"><path d="M 195 175 L 221 175 L 221 192 L 195 192 Z M 195 175 " clip-rule="nonzero"/></clipPath><clipPath id="clip-106"><path d="M 149.179688 115.027344 L 222.898438 188.746094 L 151.832031 259.808594 L 78.117188 186.09375 Z M 149.179688 115.027344 " clip-rule="nonzero"/></clipPath><clipPath id="clip-107"><path d="M 149.179688 115.027344 L 222.898438 188.746094 L 151.832031 259.808594 L 78.117188 186.09375 Z M 149.179688 115.027344 " clip-rule="nonzero"/></clipPath></defs><g clip-path="url(#clip-0)"><g clip-path="url(#clip-1)"><g clip-path="url(#clip-2)"><path fill="rgb(50.19989%, 0%, 50.19989%)" d="M 84.742188 188.234375 C 95.367188 188.484375 95.441406 173.46875 106.0625 173.71875 L 101.476562 173.609375 C 90.851562 173.359375 90.777344 188.378906 80.152344 188.125 Z M 84.742188 188.234375 " fill-opacity="1" fill-rule="nonzero"/></g></g></g><g clip-path="url(#clip-3)"><g clip-path="url(#clip-4)"><g clip-path="url(#clip-5)"><path fill="rgb(50.19989%, 0%, 50.19989%)" d="M 94.773438 188.472656 C 105.394531 188.722656 105.46875 173.703125 116.09375 173.957031 L 111.503906 173.847656 C 100.878906 173.597656 100.808594 188.613281 90.183594 188.363281 Z M 94.773438 188.472656 " fill-opacity="1" fill-rule="nonzero"/></g></g></g><g clip-path="url(#clip-6)"><g clip-path="url(#clip-7)"><g clip-path="url(#clip-8)"><path fill="rgb(50.19989%, 0%, 50.19989%)" d="M 121.96875 189.113281 C 111.347656 188.863281 112.097656 173.859375 101.476562 173.609375 L 106.066406 173.71875 C 116.6875 173.96875 115.933594 188.972656 126.558594 189.222656 Z M 121.96875 189.113281 " fill-opacity="1" fill-rule="nonzero"/></g></g></g><g clip-path="url(#clip-9)"><g clip-path="url(#clip-10)"><g clip-path="url(#clip-11)"><path fill="rgb(50.19989%, 0%, 50.19989%)" d="M 126.558594 189.222656 C 137.179688 189.472656 137.253906 174.457031 147.878906 174.707031 L 143.289062 174.597656 C 132.667969 174.347656 132.59375 189.363281 121.96875 189.113281 Z M 126.558594 189.222656 " fill-opacity="1" fill-rule="nonzero"/></g></g></g><g clip-path="url(#clip-12)"><g clip-path="url(#clip-13)"><g clip-path="url(#clip-14)"><path fill="rgb(50.19989%, 0%, 50.19989%)" d="M 136.582031 189.460938 C 147.207031 189.714844 147.28125 174.695312 157.902344 174.945312 L 153.3125 174.835938 C 142.691406 174.585938 142.617188 189.605469 131.992188 189.351562 Z M 136.582031 189.460938 " fill-opacity="1" fill-rule="nonzero"/></g></g></g><g clip-path="url(#clip-15)"><g clip-path="url(#clip-16)"><g clip-path="url(#clip-17)"><path fill="rgb(50.19989%, 0%, 50.19989%)" d="M 163.78125 190.105469 C 153.15625 189.855469 153.910156 174.851562 143.289062 174.601562 L 147.878906 174.710938 C 158.5 174.960938 157.746094 189.964844 168.371094 190.214844 Z M 163.78125 190.105469 " fill-opacity="1" fill-rule="nonzero"/></g></g></g><g clip-path="url(#clip-18)"><g clip-path="url(#clip-19)"><g clip-path="url(#clip-20)"><path fill="rgb(50.19989%, 0%, 50.19989%)" d="M 168.367188 190.210938 C 178.988281 190.464844 179.0625 175.445312 189.6875 175.695312 L 185.097656 175.585938 C 174.476562 175.335938 174.398438 190.355469 163.777344 190.101562 Z M 168.367188 190.210938 " fill-opacity="1" fill-rule="nonzero"/></g></g></g><g clip-path="url(#clip-21)"><g clip-path="url(#clip-22)"><g clip-path="url(#clip-23)"><path fill="rgb(50.19989%, 0%, 50.19989%)" d="M 178.394531 190.449219 C 189.015625 190.699219 189.089844 175.679688 199.714844 175.933594 L 195.125 175.824219 C 184.503906 175.574219 184.425781 190.589844 173.804688 190.339844 Z M 178.394531 190.449219 " fill-opacity="1" fill-rule="nonzero"/></g></g></g><g clip-path="url(#clip-24)"><g clip-path="url(#clip-25)"><g clip-path="url(#clip-26)"><path fill="rgb(50.19989%, 0%, 50.19989%)" d="M 205.59375 191.09375 C 194.96875 190.84375 195.722656 175.839844 185.101562 175.589844 L 189.691406 175.695312 C 200.3125 175.949219 199.558594 190.949219 210.183594 191.203125 Z M 205.59375 191.09375 " fill-opacity="1" fill-rule="nonzero"/></g></g></g><g clip-path="url(#clip-27)"><g clip-path="url(#clip-28)"><g clip-path="url(#clip-29)"><path fill="rgb(100%, 84.309387%, 0%)" d="M 93.199219 183.003906 L 93.070312 187.65625 C 93.0625 188.003906 93.28125 188.292969 93.5625 188.300781 C 93.84375 188.308594 94.082031 188.03125 94.089844 187.679688 L 94.21875 183.027344 C 94.230469 182.675781 94.007812 182.386719 93.726562 182.382812 C 93.445312 182.375 93.207031 182.652344 93.199219 183.003906 Z M 93.199219 183.003906 " fill-opacity="1" fill-rule="nonzero"/></g></g></g><g clip-path="url(#clip-30)"><g clip-path="url(#clip-31)"><g clip-path="url(#clip-32)"><path fill="rgb(100%, 84.309387%, 0%)" d="M 96.484375 178.710938 L 96.257812 186.921875 C 96.25 187.273438 96.46875 187.558594 96.75 187.566406 C 97.035156 187.574219 97.269531 187.296875 97.277344 186.945312 L 97.503906 178.734375 C 97.515625 178.382812 97.292969 178.09375 97.011719 178.089844 C 96.734375 178.082031 96.496094 178.359375 96.484375 178.710938 Z M 96.484375 178.710938 " fill-opacity="1" fill-rule="nonzero"/></g></g></g><g clip-path="url(#clip-33)"><g clip-path="url(#clip-34)"><g clip-path="url(#clip-35)"><path fill="rgb(100%, 84.309387%, 0%)" d="M 99.75 175.191406 L 99.492188 184.460938 C 99.484375 184.808594 99.703125 185.101562 99.988281 185.109375 C 100.269531 185.113281 100.503906 184.835938 100.515625 184.484375 L 100.769531 175.214844 C 100.78125 174.867188 100.558594 174.578125 100.277344 174.570312 C 99.996094 174.5625 99.757812 174.84375 99.75 175.191406 Z M 99.75 175.191406 " fill-opacity="1" fill-rule="nonzero"/></g></g></g><g clip-path="url(#clip-36)"><g clip-path="url(#clip-37)"><g clip-path="url(#clip-38)"><path fill="rgb(100%, 84.309387%, 0%)" d="M 102.941406 174.332031 L 102.773438 180.410156 C 102.765625 180.761719 102.984375 181.050781 103.265625 181.058594 C 103.546875 181.066406 103.785156 180.785156 103.796875 180.433594 L 103.964844 174.355469 C 103.972656 174.007812 103.75 173.71875 103.46875 173.710938 C 103.1875 173.703125 102.953125 173.984375 102.941406 174.332031 Z M 102.941406 174.332031 " fill-opacity="1" fill-rule="nonzero"/></g></g></g><g clip-path="url(#clip-39)"><g clip-path="url(#clip-40)"><g clip-path="url(#clip-41)"><path fill="rgb(100%, 84.309387%, 0%)" d="M 122.890625 181.308594 L 122.695312 188.355469 C 122.683594 188.707031 122.90625 188.996094 123.1875 189.003906 C 123.46875 189.007812 123.707031 188.730469 123.714844 188.378906 L 123.910156 181.332031 C 123.917969 180.984375 123.699219 180.691406 123.417969 180.6875 C 123.136719 180.679688 122.898438 180.960938 122.890625 181.308594 Z M 122.890625 181.308594 " fill-opacity="1" fill-rule="nonzero"/></g></g></g><g clip-path="url(#clip-42)"><g clip-path="url(#clip-43)"><g clip-path="url(#clip-44)"><path fill="rgb(100%, 84.309387%, 0%)" d="M 119.824219 177.535156 L 119.546875 187.472656 C 119.539062 187.824219 119.757812 188.113281 120.042969 188.117188 C 120.324219 188.125 120.558594 187.847656 120.570312 187.496094 L 120.84375 177.558594 C 120.855469 177.207031 120.632812 176.917969 120.351562 176.914062 C 120.070312 176.90625 119.832031 177.183594 119.824219 177.535156 Z M 119.824219 177.535156 " fill-opacity="1" fill-rule="nonzero"/></g></g></g><g clip-path="url(#clip-45)"><g clip-path="url(#clip-46)"><g clip-path="url(#clip-47)"><path fill="rgb(100%, 84.309387%, 0%)" d="M 116.707031 175.589844 L 116.453125 184.859375 C 116.441406 185.207031 116.664062 185.5 116.945312 185.507812 C 117.226562 185.511719 117.464844 185.234375 117.472656 184.882812 L 117.730469 175.613281 C 117.738281 175.261719 117.515625 174.976562 117.238281 174.96875 C 116.957031 174.960938 116.71875 175.238281 116.707031 175.589844 Z M 116.707031 175.589844 " fill-opacity="1" fill-rule="nonzero"/></g></g></g><g clip-path="url(#clip-48)"><g clip-path="url(#clip-49)"><g clip-path="url(#clip-50)"><path fill="rgb(100%, 84.309387%, 0%)" d="M 113.566406 174.582031 L 113.398438 180.660156 C 113.390625 181.011719 113.609375 181.300781 113.890625 181.308594 C 114.175781 181.316406 114.410156 181.035156 114.421875 180.683594 L 114.589844 174.605469 C 114.597656 174.257812 114.378906 173.96875 114.09375 173.960938 C 113.8125 173.953125 113.578125 174.234375 113.566406 174.582031 Z M 113.566406 174.582031 " fill-opacity="1" fill-rule="nonzero"/></g></g></g><g clip-path="url(#clip-51)"><g clip-path="url(#clip-52)"><g clip-path="url(#clip-53)"><path fill="rgb(100%, 84.309387%, 0%)" d="M 135.011719 183.996094 L 134.882812 188.644531 C 134.871094 188.996094 135.09375 189.285156 135.375 189.292969 C 135.65625 189.296875 135.894531 189.019531 135.902344 188.671875 L 136.03125 184.019531 C 136.039062 183.667969 135.820312 183.378906 135.539062 183.371094 C 135.257812 183.367188 135.019531 183.644531 135.011719 183.996094 Z M 135.011719 183.996094 " fill-opacity="1" fill-rule="nonzero"/></g></g></g><g clip-path="url(#clip-54)"><g clip-path="url(#clip-55)"><g clip-path="url(#clip-56)"><path fill="rgb(100%, 84.309387%, 0%)" d="M 138.300781 179.699219 L 138.074219 187.910156 C 138.0625 188.257812 138.285156 188.546875 138.566406 188.554688 C 138.847656 188.5625 139.082031 188.285156 139.09375 187.933594 L 139.320312 179.722656 C 139.328125 179.371094 139.109375 179.082031 138.828125 179.074219 C 138.546875 179.070312 138.308594 179.347656 138.300781 179.699219 Z M 138.300781 179.699219 " fill-opacity="1" fill-rule="nonzero"/></g></g></g><g clip-path="url(#clip-57)"><g clip-path="url(#clip-58)"><g clip-path="url(#clip-59)"><path fill="rgb(100%, 84.309387%, 0%)" d="M 141.5625 176.179688 L 141.308594 185.449219 C 141.296875 185.796875 141.519531 186.089844 141.800781 186.097656 C 142.082031 186.101562 142.320312 185.820312 142.328125 185.472656 L 142.585938 176.203125 C 142.59375 175.851562 142.375 175.566406 142.089844 175.558594 C 141.808594 175.550781 141.574219 175.828125 141.5625 176.179688 Z M 141.5625 176.179688 " fill-opacity="1" fill-rule="nonzero"/></g></g></g><g clip-path="url(#clip-60)"><g clip-path="url(#clip-61)"><g clip-path="url(#clip-62)"><path fill="rgb(100%, 84.309387%, 0%)" d="M 144.757812 175.320312 L 144.589844 181.398438 C 144.578125 181.75 144.800781 182.039062 145.078125 182.046875 C 145.359375 182.054688 145.597656 181.773438 145.609375 181.421875 L 145.777344 175.34375 C 145.785156 174.996094 145.566406 174.707031 145.28125 174.699219 C 145 174.691406 144.765625 174.972656 144.757812 175.320312 Z M 144.757812 175.320312 " fill-opacity="1" fill-rule="nonzero"/></g></g></g><g clip-path="url(#clip-63)"><g clip-path="url(#clip-64)"><g clip-path="url(#clip-65)"><path fill="rgb(100%, 84.309387%, 0%)" d="M 164.703125 182.300781 L 164.507812 189.347656 C 164.5 189.699219 164.71875 189.988281 165 189.992188 C 165.28125 190 165.515625 189.722656 165.527344 189.371094 L 165.722656 182.324219 C 165.730469 181.976562 165.511719 181.683594 165.226562 181.675781 C 164.945312 181.671875 164.710938 181.949219 164.703125 182.300781 Z M 164.703125 182.300781 " fill-opacity="1" fill-rule="nonzero"/></g></g></g><g clip-path="url(#clip-66)"><g clip-path="url(#clip-67)"><g clip-path="url(#clip-68)"><path fill="rgb(100%, 84.309387%, 0%)" d="M 161.636719 178.523438 L 161.359375 188.460938 C 161.351562 188.8125 161.570312 189.101562 161.855469 189.105469 C 162.136719 189.113281 162.367188 188.835938 162.378906 188.484375 L 162.652344 178.546875 C 162.664062 178.195312 162.445312 177.90625 162.164062 177.898438 C 161.882812 177.894531 161.644531 178.171875 161.636719 178.523438 Z M 161.636719 178.523438 " fill-opacity="1" fill-rule="nonzero"/></g></g></g><g clip-path="url(#clip-69)"><g clip-path="url(#clip-70)"><g clip-path="url(#clip-71)"><path fill="rgb(100%, 84.309387%, 0%)" d="M 158.519531 176.582031 L 158.265625 185.847656 C 158.253906 186.199219 158.476562 186.492188 158.757812 186.496094 C 159.039062 186.503906 159.277344 186.222656 159.285156 185.875 L 159.542969 176.605469 C 159.550781 176.253906 159.328125 175.964844 159.046875 175.960938 C 158.765625 175.953125 158.53125 176.230469 158.519531 176.582031 Z M 158.519531 176.582031 " fill-opacity="1" fill-rule="nonzero"/></g></g></g><g clip-path="url(#clip-72)"><g clip-path="url(#clip-73)"><g clip-path="url(#clip-74)"><path fill="rgb(100%, 84.309387%, 0%)" d="M 155.378906 175.574219 L 155.210938 181.648438 C 155.203125 182 155.421875 182.292969 155.703125 182.296875 C 155.988281 182.304688 156.222656 182.027344 156.234375 181.675781 L 156.402344 175.597656 C 156.410156 175.246094 156.1875 174.957031 155.90625 174.949219 C 155.625 174.945312 155.390625 175.222656 155.378906 175.574219 Z M 155.378906 175.574219 " fill-opacity="1" fill-rule="nonzero"/></g></g></g><g clip-path="url(#clip-75)"><g clip-path="url(#clip-76)"><g clip-path="url(#clip-77)"><path fill="rgb(100%, 84.309387%, 0%)" d="M 176.824219 184.984375 L 176.695312 189.636719 C 176.683594 189.984375 176.90625 190.273438 177.1875 190.28125 C 177.46875 190.289062 177.707031 190.011719 177.714844 189.660156 L 177.84375 185.007812 C 177.855469 184.65625 177.632812 184.367188 177.351562 184.363281 C 177.070312 184.355469 176.832031 184.632812 176.824219 184.984375 Z M 176.824219 184.984375 " fill-opacity="1" fill-rule="nonzero"/></g></g></g><g clip-path="url(#clip-78)"><g clip-path="url(#clip-79)"><g clip-path="url(#clip-80)"><path fill="rgb(100%, 84.309387%, 0%)" d="M 180.113281 180.6875 L 179.886719 188.898438 C 179.875 189.25 180.09375 189.539062 180.378906 189.546875 C 180.65625 189.550781 180.894531 189.273438 180.902344 188.925781 L 181.132812 180.714844 C 181.140625 180.363281 180.917969 180.074219 180.640625 180.066406 C 180.355469 180.058594 180.121094 180.339844 180.113281 180.6875 Z M 180.113281 180.6875 " fill-opacity="1" fill-rule="nonzero"/></g></g></g><g clip-path="url(#clip-81)"><g clip-path="url(#clip-82)"><g clip-path="url(#clip-83)"><path fill="rgb(100%, 84.309387%, 0%)" d="M 183.375 177.171875 L 183.121094 186.4375 C 183.109375 186.789062 183.332031 187.078125 183.613281 187.085938 C 183.894531 187.09375 184.132812 186.8125 184.140625 186.460938 L 184.398438 177.195312 C 184.40625 176.84375 184.1875 176.554688 183.90625 176.546875 C 183.625 176.542969 183.386719 176.820312 183.375 177.171875 Z M 183.375 177.171875 " fill-opacity="1" fill-rule="nonzero"/></g></g></g><g clip-path="url(#clip-84)"><g clip-path="url(#clip-85)"><g clip-path="url(#clip-86)"><path fill="rgb(100%, 84.309387%, 0%)" d="M 186.570312 176.308594 L 186.402344 182.386719 C 186.390625 182.738281 186.613281 183.027344 186.890625 183.035156 C 187.175781 183.042969 187.410156 182.761719 187.417969 182.410156 L 187.585938 176.332031 C 187.597656 175.984375 187.378906 175.695312 187.09375 175.6875 C 186.816406 175.679688 186.578125 175.960938 186.570312 176.308594 Z M 186.570312 176.308594 " fill-opacity="1" fill-rule="nonzero"/></g></g></g><g clip-path="url(#clip-87)"><g clip-path="url(#clip-88)"><g clip-path="url(#clip-89)"><path fill="rgb(100%, 84.309387%, 0%)" d="M 206.515625 183.289062 L 206.320312 190.335938 C 206.308594 190.6875 206.527344 190.976562 206.808594 190.980469 C 207.089844 190.988281 207.328125 190.710938 207.339844 190.359375 L 207.53125 183.3125 C 207.542969 182.964844 207.320312 182.671875 207.039062 182.664062 C 206.757812 182.660156 206.523438 182.9375 206.515625 183.289062 Z M 206.515625 183.289062 " fill-opacity="1" fill-rule="nonzero"/></g></g></g><g clip-path="url(#clip-90)"><g clip-path="url(#clip-91)"><g clip-path="url(#clip-92)"><path fill="rgb(100%, 84.309387%, 0%)" d="M 203.449219 179.515625 L 203.175781 189.453125 C 203.167969 189.804688 203.386719 190.09375 203.667969 190.097656 C 203.953125 190.105469 204.183594 189.828125 204.191406 189.476562 L 204.46875 179.539062 C 204.476562 179.1875 204.261719 178.898438 203.980469 178.890625 C 203.699219 178.886719 203.460938 179.164062 203.449219 179.515625 Z M 203.449219 179.515625 " fill-opacity="1" fill-rule="nonzero"/></g></g></g><g clip-path="url(#clip-93)"><g clip-path="url(#clip-94)"><g clip-path="url(#clip-95)"><path fill="rgb(100%, 84.309387%, 0%)" d="M 200.335938 177.570312 L 200.078125 186.839844 C 200.070312 187.191406 200.292969 187.480469 200.570312 187.488281 C 200.851562 187.496094 201.089844 187.214844 201.101562 186.863281 L 201.355469 177.597656 C 201.367188 177.246094 201.144531 176.957031 200.863281 176.949219 C 200.582031 176.941406 200.34375 177.222656 200.335938 177.570312 Z M 200.335938 177.570312 " fill-opacity="1" fill-rule="nonzero"/></g></g></g><g clip-path="url(#clip-96)"><g clip-path="url(#clip-97)"><g clip-path="url(#clip-98)"><path fill="rgb(100%, 84.309387%, 0%)" d="M 197.191406 176.558594 L 197.023438 182.636719 C 197.011719 182.988281 197.234375 183.277344 197.515625 183.285156 C 197.800781 183.292969 198.035156 183.011719 198.046875 182.660156 L 198.210938 176.585938 C 198.222656 176.234375 198 175.945312 197.71875 175.9375 C 197.4375 175.933594 197.199219 176.210938 197.191406 176.558594 Z M 197.191406 176.558594 " fill-opacity="1" fill-rule="nonzero"/></g></g></g><g clip-path="url(#clip-99)"><g clip-path="url(#clip-100)"><g clip-path="url(#clip-101)"><path fill="rgb(50.19989%, 0%, 50.19989%)" d="M 131.992188 189.355469 C 121.371094 189.101562 122.125 174.101562 111.5 173.847656 L 116.089844 173.957031 C 126.714844 174.207031 125.957031 189.210938 136.582031 189.460938 Z M 131.992188 189.355469 " fill-opacity="1" fill-rule="nonzero"/></g></g></g><g clip-path="url(#clip-102)"><g clip-path="url(#clip-103)"><g clip-path="url(#clip-104)"><path fill="rgb(50.19989%, 0%, 50.19989%)" d="M 173.804688 190.34375 C 163.183594 190.089844 163.9375 175.089844 153.3125 174.835938 L 157.902344 174.945312 C 168.527344 175.195312 167.773438 190.199219 178.394531 190.449219 Z M 173.804688 190.34375 " fill-opacity="1" fill-rule="nonzero"/></g></g></g><g clip-path="url(#clip-105)"><g clip-path="url(#clip-106)"><g clip-path="url(#clip-107)"><path fill="rgb(50.19989%, 0%, 50.19989%)" d="M 215.617188 191.328125 C 204.996094 191.078125 205.75 176.074219 195.125 175.824219 L 199.714844 175.933594 C 210.335938 176.183594 209.582031 191.1875 220.207031 191.4375 Z M 215.617188 191.328125 " fill-opacity="1" fill-rule="nonzero"/></g></g></g></svg>