<?xml version="1.0" encoding="UTF-8"?><svg xmlns="http://www.w3.org/2000/svg" xmlns:xlink="http://www.w3.org/1999/xlink" contentScriptType="text/ecmascript" width="262.5" zoomAndPan="magnify" contentStyleType="text/css" viewBox="0 0 262.5 44.999999" height="44.999999" preserveAspectRatio="xMidYMid meet" version="1.0"><defs><clipPath id="clip-0"><path d="M 0 7 L 48 7 L 48 36 L 0 36 Z M 0 7 " clip-rule="nonzero"/></clipPath><clipPath id="clip-1"><path d="M 125.921875 -103.6875 L 266.71875 31.222656 L 136.996094 166.605469 L -3.800781 31.695312 Z M 125.921875 -103.6875 " clip-rule="nonzero"/></clipPath><clipPath id="clip-2"><path d="M 125.921875 -103.6875 L 266.71875 31.222656 L 136.996094 166.605469 L -3.800781 31.695312 Z M 125.921875 -103.6875 " clip-rule="nonzero"/></clipPath><clipPath id="clip-3"><path d="M 18 7 L 67 7 L 67 36 L 18 36 Z M 18 7 " clip-rule="nonzero"/></clipPath><clipPath id="clip-4"><path d="M 125.921875 -103.6875 L 266.71875 31.222656 L 136.996094 166.605469 L -3.800781 31.695312 Z M 125.921875 -103.6875 " clip-rule="nonzero"/></clipPath><clipPath id="clip-5"><path d="M 125.921875 -103.6875 L 266.71875 31.222656 L 136.996094 166.605469 L -3.800781 31.695312 Z M 125.921875 -103.6875 " clip-rule="nonzero"/></clipPath><clipPath id="clip-6"><path d="M 39 7 L 87 7 L 87 36 L 39 36 Z M 39 7 " clip-rule="nonzero"/></clipPath><clipPath id="clip-7"><path d="M 125.921875 -103.6875 L 266.71875 31.222656 L 136.996094 166.605469 L -3.800781 31.695312 Z M 125.921875 -103.6875 " clip-rule="nonzero"/></clipPath><clipPath id="clip-8"><path d="M 125.921875 -103.6875 L 266.71875 31.222656 L 136.996094 166.605469 L -3.800781 31.695312 Z M 125.921875 -103.6875 " clip-rule="nonzero"/></clipPath><clipPath id="clip-9"><path d="M 78 7 L 127 7 L 127 36 L 78 36 Z M 78 7 " clip-rule="nonzero"/></clipPath><clipPath id="clip-10"><path d="M 125.921875 -103.6875 L 266.71875 31.222656 L 136.996094 166.605469 L -3.800781 31.695312 Z M 125.921875 -103.6875 " clip-rule="nonzero"/></clipPath><clipPath id="clip-11"><path d="M 125.921875 -103.6875 L 266.71875 31.222656 L 136.996094 166.605469 L -3.800781 31.695312 Z M 125.921875 -103.6875 " clip-rule="nonzero"/></clipPath><clipPath id="clip-12"><path d="M 96 7 L 145 7 L 145 36 L 96 36 Z M 96 7 " clip-rule="nonzero"/></clipPath><clipPath id="clip-13"><path d="M 125.921875 -103.6875 L 266.71875 31.222656 L 136.996094 166.605469 L -3.800781 31.695312 Z M 125.921875 -103.6875 " clip-rule="nonzero"/></clipPath><clipPath id="clip-14"><path d="M 125.921875 -103.6875 L 266.71875 31.222656 L 136.996094 166.605469 L -3.800781 31.695312 Z M 125.921875 -103.6875 " clip-rule="nonzero"/></clipPath><clipPath id="clip-15"><path d="M 117 7 L 165 7 L 165 37 L 117 37 Z M 117 7 " clip-rule="nonzero"/></clipPath><clipPath id="clip-16"><path d="M 125.921875 -103.6875 L 266.71875 31.222656 L 136.996094 166.605469 L -3.800781 31.695312 Z M 125.921875 -103.6875 " clip-rule="nonzero"/></clipPath><clipPath id="clip-17"><path d="M 125.921875 -103.6875 L 266.71875 31.222656 L 136.996094 166.605469 L -3.800781 31.695312 Z M 125.921875 -103.6875 " clip-rule="nonzero"/></clipPath><clipPath id="clip-18"><path d="M 156 8 L 205 8 L 205 37 L 156 37 Z M 156 8 " clip-rule="nonzero"/></clipPath><clipPath id="clip-19"><path d="M 125.921875 -103.6875 L 266.71875 31.222656 L 136.996094 166.605469 L -3.800781 31.695312 Z M 125.921875 -103.6875 " clip-rule="nonzero"/></clipPath><clipPath id="clip-20"><path d="M 125.921875 -103.6875 L 266.71875 31.222656 L 136.996094 166.605469 L -3.800781 31.695312 Z M 125.921875 -103.6875 " clip-rule="nonzero"/></clipPath><clipPath id="clip-21"><path d="M 175 8 L 223 8 L 223 37 L 175 37 Z M 175 8 " clip-rule="nonzero"/></clipPath><clipPath id="clip-22"><path d="M 125.921875 -103.6875 L 266.71875 31.222656 L 136.996094 166.605469 L -3.800781 31.695312 Z M 125.921875 -103.6875 " clip-rule="nonzero"/></clipPath><clipPath id="clip-23"><path d="M 125.921875 -103.6875 L 266.71875 31.222656 L 136.996094 166.605469 L -3.800781 31.695312 Z M 125.921875 -103.6875 " clip-rule="nonzero"/></clipPath><clipPath id="clip-24"><path d="M 195 8 L 244 8 L 244 37 L 195 37 Z M 195 8 " clip-rule="nonzero"/></clipPath><clipPath id="clip-25"><path d="M 125.921875 -103.6875 L 266.71875 31.222656 L 136.996094 166.605469 L -3.800781 31.695312 Z M 125.921875 -103.6875 " clip-rule="nonzero"/></clipPath><clipPath id="clip-26"><path d="M 125.921875 -103.6875 L 266.71875 31.222656 L 136.996094 166.605469 L -3.800781 31.695312 Z M 125.921875 -103.6875 " clip-rule="nonzero"/></clipPath><clipPath id="clip-27"><path d="M 24 24 L 27 24 L 27 36 L 24 36 Z M 24 24 " clip-rule="nonzero"/></clipPath><clipPath id="clip-28"><path d="M 125.921875 -103.6875 L 266.71875 31.222656 L 136.996094 166.605469 L -3.800781 31.695312 Z M 125.921875 -103.6875 " clip-rule="nonzero"/></clipPath><clipPath id="clip-29"><path d="M 125.921875 -103.6875 L 266.71875 31.222656 L 136.996094 166.605469 L -3.800781 31.695312 Z M 125.921875 -103.6875 " clip-rule="nonzero"/></clipPath><clipPath id="clip-30"><path d="M 30 16 L 33 16 L 33 34 L 30 34 Z M 30 16 " clip-rule="nonzero"/></clipPath><clipPath id="clip-31"><path d="M 125.921875 -103.6875 L 266.71875 31.222656 L 136.996094 166.605469 L -3.800781 31.695312 Z M 125.921875 -103.6875 " clip-rule="nonzero"/></clipPath><clipPath id="clip-32"><path d="M 125.921875 -103.6875 L 266.71875 31.222656 L 136.996094 166.605469 L -3.800781 31.695312 Z M 125.921875 -103.6875 " clip-rule="nonzero"/></clipPath><clipPath id="clip-33"><path d="M 36 9 L 39 9 L 39 30 L 36 30 Z M 36 9 " clip-rule="nonzero"/></clipPath><clipPath id="clip-34"><path d="M 125.921875 -103.6875 L 266.71875 31.222656 L 136.996094 166.605469 L -3.800781 31.695312 Z M 125.921875 -103.6875 " clip-rule="nonzero"/></clipPath><clipPath id="clip-35"><path d="M 125.921875 -103.6875 L 266.71875 31.222656 L 136.996094 166.605469 L -3.800781 31.695312 Z M 125.921875 -103.6875 " clip-rule="nonzero"/></clipPath><clipPath id="clip-36"><path d="M 42 7 L 44 7 L 44 22 L 42 22 Z M 42 7 " clip-rule="nonzero"/></clipPath><clipPath id="clip-37"><path d="M 125.921875 -103.6875 L 266.71875 31.222656 L 136.996094 166.605469 L -3.800781 31.695312 Z M 125.921875 -103.6875 " clip-rule="nonzero"/></clipPath><clipPath id="clip-38"><path d="M 125.921875 -103.6875 L 266.71875 31.222656 L 136.996094 166.605469 L -3.800781 31.695312 Z M 125.921875 -103.6875 " clip-rule="nonzero"/></clipPath><clipPath id="clip-39"><path d="M 79 19 L 82 19 L 82 36 L 79 36 Z M 79 19 " clip-rule="nonzero"/></clipPath><clipPath id="clip-40"><path d="M 125.921875 -103.6875 L 266.71875 31.222656 L 136.996094 166.605469 L -3.800781 31.695312 Z M 125.921875 -103.6875 " clip-rule="nonzero"/></clipPath><clipPath id="clip-41"><path d="M 125.921875 -103.6875 L 266.71875 31.222656 L 136.996094 166.605469 L -3.800781 31.695312 Z M 125.921875 -103.6875 " clip-rule="nonzero"/></clipPath><clipPath id="clip-42"><path d="M 73 12 L 76 12 L 76 34 L 73 34 Z M 73 12 " clip-rule="nonzero"/></clipPath><clipPath id="clip-43"><path d="M 125.921875 -103.6875 L 266.71875 31.222656 L 136.996094 166.605469 L -3.800781 31.695312 Z M 125.921875 -103.6875 " clip-rule="nonzero"/></clipPath><clipPath id="clip-44"><path d="M 125.921875 -103.6875 L 266.71875 31.222656 L 136.996094 166.605469 L -3.800781 31.695312 Z M 125.921875 -103.6875 " clip-rule="nonzero"/></clipPath><clipPath id="clip-45"><path d="M 67 9 L 70 9 L 70 30 L 67 30 Z M 67 9 " clip-rule="nonzero"/></clipPath><clipPath id="clip-46"><path d="M 125.921875 -103.6875 L 266.71875 31.222656 L 136.996094 166.605469 L -3.800781 31.695312 Z M 125.921875 -103.6875 " clip-rule="nonzero"/></clipPath><clipPath id="clip-47"><path d="M 125.921875 -103.6875 L 266.71875 31.222656 L 136.996094 166.605469 L -3.800781 31.695312 Z M 125.921875 -103.6875 " clip-rule="nonzero"/></clipPath><clipPath id="clip-48"><path d="M 61 7 L 64 7 L 64 22 L 61 22 Z M 61 7 " clip-rule="nonzero"/></clipPath><clipPath id="clip-49"><path d="M 125.921875 -103.6875 L 266.71875 31.222656 L 136.996094 166.605469 L -3.800781 31.695312 Z M 125.921875 -103.6875 " clip-rule="nonzero"/></clipPath><clipPath id="clip-50"><path d="M 125.921875 -103.6875 L 266.71875 31.222656 L 136.996094 166.605469 L -3.800781 31.695312 Z M 125.921875 -103.6875 " clip-rule="nonzero"/></clipPath><clipPath id="clip-51"><path d="M 102 24 L 105 24 L 105 36 L 102 36 Z M 102 24 " clip-rule="nonzero"/></clipPath><clipPath id="clip-52"><path d="M 125.921875 -103.6875 L 266.71875 31.222656 L 136.996094 166.605469 L -3.800781 31.695312 Z M 125.921875 -103.6875 " clip-rule="nonzero"/></clipPath><clipPath id="clip-53"><path d="M 125.921875 -103.6875 L 266.71875 31.222656 L 136.996094 166.605469 L -3.800781 31.695312 Z M 125.921875 -103.6875 " clip-rule="nonzero"/></clipPath><clipPath id="clip-54"><path d="M 108 16 L 111 16 L 111 35 L 108 35 Z M 108 16 " clip-rule="nonzero"/></clipPath><clipPath id="clip-55"><path d="M 125.921875 -103.6875 L 266.71875 31.222656 L 136.996094 166.605469 L -3.800781 31.695312 Z M 125.921875 -103.6875 " clip-rule="nonzero"/></clipPath><clipPath id="clip-56"><path d="M 125.921875 -103.6875 L 266.71875 31.222656 L 136.996094 166.605469 L -3.800781 31.695312 Z M 125.921875 -103.6875 " clip-rule="nonzero"/></clipPath><clipPath id="clip-57"><path d="M 114 9 L 117 9 L 117 30 L 114 30 Z M 114 9 " clip-rule="nonzero"/></clipPath><clipPath id="clip-58"><path d="M 125.921875 -103.6875 L 266.71875 31.222656 L 136.996094 166.605469 L -3.800781 31.695312 Z M 125.921875 -103.6875 " clip-rule="nonzero"/></clipPath><clipPath id="clip-59"><path d="M 125.921875 -103.6875 L 266.71875 31.222656 L 136.996094 166.605469 L -3.800781 31.695312 Z M 125.921875 -103.6875 " clip-rule="nonzero"/></clipPath><clipPath id="clip-60"><path d="M 120 7 L 123 7 L 123 22 L 120 22 Z M 120 7 " clip-rule="nonzero"/></clipPath><clipPath id="clip-61"><path d="M 125.921875 -103.6875 L 266.71875 31.222656 L 136.996094 166.605469 L -3.800781 31.695312 Z M 125.921875 -103.6875 " clip-rule="nonzero"/></clipPath><clipPath id="clip-62"><path d="M 125.921875 -103.6875 L 266.71875 31.222656 L 136.996094 166.605469 L -3.800781 31.695312 Z M 125.921875 -103.6875 " clip-rule="nonzero"/></clipPath><clipPath id="clip-63"><path d="M 157 20 L 160 20 L 160 36 L 157 36 Z M 157 20 " clip-rule="nonzero"/></clipPath><clipPath id="clip-64"><path d="M 125.921875 -103.6875 L 266.71875 31.222656 L 136.996094 166.605469 L -3.800781 31.695312 Z M 125.921875 -103.6875 " clip-rule="nonzero"/></clipPath><clipPath id="clip-65"><path d="M 125.921875 -103.6875 L 266.71875 31.222656 L 136.996094 166.605469 L -3.800781 31.695312 Z M 125.921875 -103.6875 " clip-rule="nonzero"/></clipPath><clipPath id="clip-66"><path d="M 151 13 L 154 13 L 154 35 L 151 35 Z M 151 13 " clip-rule="nonzero"/></clipPath><clipPath id="clip-67"><path d="M 125.921875 -103.6875 L 266.71875 31.222656 L 136.996094 166.605469 L -3.800781 31.695312 Z M 125.921875 -103.6875 " clip-rule="nonzero"/></clipPath><clipPath id="clip-68"><path d="M 125.921875 -103.6875 L 266.71875 31.222656 L 136.996094 166.605469 L -3.800781 31.695312 Z M 125.921875 -103.6875 " clip-rule="nonzero"/></clipPath><clipPath id="clip-69"><path d="M 145 9 L 148 9 L 148 30 L 145 30 Z M 145 9 " clip-rule="nonzero"/></clipPath><clipPath id="clip-70"><path d="M 125.921875 -103.6875 L 266.71875 31.222656 L 136.996094 166.605469 L -3.800781 31.695312 Z M 125.921875 -103.6875 " clip-rule="nonzero"/></clipPath><clipPath id="clip-71"><path d="M 125.921875 -103.6875 L 266.71875 31.222656 L 136.996094 166.605469 L -3.800781 31.695312 Z M 125.921875 -103.6875 " clip-rule="nonzero"/></clipPath><clipPath id="clip-72"><path d="M 140 7 L 142 7 L 142 22 L 140 22 Z M 140 7 " clip-rule="nonzero"/></clipPath><clipPath id="clip-73"><path d="M 125.921875 -103.6875 L 266.71875 31.222656 L 136.996094 166.605469 L -3.800781 31.695312 Z M 125.921875 -103.6875 " clip-rule="nonzero"/></clipPath><clipPath id="clip-74"><path d="M 125.921875 -103.6875 L 266.71875 31.222656 L 136.996094 166.605469 L -3.800781 31.695312 Z M 125.921875 -103.6875 " clip-rule="nonzero"/></clipPath><clipPath id="clip-75"><path d="M 180 24 L 183 24 L 183 36 L 180 36 Z M 180 24 " clip-rule="nonzero"/></clipPath><clipPath id="clip-76"><path d="M 125.921875 -103.6875 L 266.71875 31.222656 L 136.996094 166.605469 L -3.800781 31.695312 Z M 125.921875 -103.6875 " clip-rule="nonzero"/></clipPath><clipPath id="clip-77"><path d="M 125.921875 -103.6875 L 266.71875 31.222656 L 136.996094 166.605469 L -3.800781 31.695312 Z M 125.921875 -103.6875 " clip-rule="nonzero"/></clipPath><clipPath id="clip-78"><path d="M 186 16 L 189 16 L 189 35 L 186 35 Z M 186 16 " clip-rule="nonzero"/></clipPath><clipPath id="clip-79"><path d="M 125.921875 -103.6875 L 266.71875 31.222656 L 136.996094 166.605469 L -3.800781 31.695312 Z M 125.921875 -103.6875 " clip-rule="nonzero"/></clipPath><clipPath id="clip-80"><path d="M 125.921875 -103.6875 L 266.71875 31.222656 L 136.996094 166.605469 L -3.800781 31.695312 Z M 125.921875 -103.6875 " clip-rule="nonzero"/></clipPath><clipPath id="clip-81"><path d="M 192 9 L 195 9 L 195 30 L 192 30 Z M 192 9 " clip-rule="nonzero"/></clipPath><clipPath id="clip-82"><path d="M 125.921875 -103.6875 L 266.71875 31.222656 L 136.996094 166.605469 L -3.800781 31.695312 Z M 125.921875 -103.6875 " clip-rule="nonzero"/></clipPath><clipPath id="clip-83"><path d="M 125.921875 -103.6875 L 266.71875 31.222656 L 136.996094 166.605469 L -3.800781 31.695312 Z M 125.921875 -103.6875 " clip-rule="nonzero"/></clipPath><clipPath id="clip-84"><path d="M 198 8 L 201 8 L 201 22 L 198 22 Z M 198 8 " clip-rule="nonzero"/></clipPath><clipPath id="clip-85"><path d="M 125.921875 -103.6875 L 266.71875 31.222656 L 136.996094 166.605469 L -3.800781 31.695312 Z M 125.921875 -103.6875 " clip-rule="nonzero"/></clipPath><clipPath id="clip-86"><path d="M 125.921875 -103.6875 L 266.71875 31.222656 L 136.996094 166.605469 L -3.800781 31.695312 Z M 125.921875 -103.6875 " clip-rule="nonzero"/></clipPath><clipPath id="clip-87"><path d="M 235 20 L 238 20 L 238 37 L 235 37 Z M 235 20 " clip-rule="nonzero"/></clipPath><clipPath id="clip-88"><path d="M 125.921875 -103.6875 L 266.71875 31.222656 L 136.996094 166.605469 L -3.800781 31.695312 Z M 125.921875 -103.6875 " clip-rule="nonzero"/></clipPath><clipPath id="clip-89"><path d="M 125.921875 -103.6875 L 266.71875 31.222656 L 136.996094 166.605469 L -3.800781 31.695312 Z M 125.921875 -103.6875 " clip-rule="nonzero"/></clipPath><clipPath id="clip-90"><path d="M 229 13 L 232 13 L 232 35 L 229 35 Z M 229 13 " clip-rule="nonzero"/></clipPath><clipPath id="clip-91"><path d="M 125.921875 -103.6875 L 266.71875 31.222656 L 136.996094 166.605469 L -3.800781 31.695312 Z M 125.921875 -103.6875 " clip-rule="nonzero"/></clipPath><clipPath id="clip-92"><path d="M 125.921875 -103.6875 L 266.71875 31.222656 L 136.996094 166.605469 L -3.800781 31.695312 Z M 125.921875 -103.6875 " clip-rule="nonzero"/></clipPath><clipPath id="clip-93"><path d="M 224 10 L 227 10 L 227 30 L 224 30 Z M 224 10 " clip-rule="nonzero"/></clipPath><clipPath id="clip-94"><path d="M 125.921875 -103.6875 L 266.71875 31.222656 L 136.996094 166.605469 L -3.800781 31.695312 Z M 125.921875 -103.6875 " clip-rule="nonzero"/></clipPath><clipPath id="clip-95"><path d="M 125.921875 -103.6875 L 266.71875 31.222656 L 136.996094 166.605469 L -3.800781 31.695312 Z M 125.921875 -103.6875 " clip-rule="nonzero"/></clipPath><clipPath id="clip-96"><path d="M 218 8 L 221 8 L 221 22 L 218 22 Z M 218 8 " clip-rule="nonzero"/></clipPath><clipPath id="clip-97"><path d="M 125.921875 -103.6875 L 266.71875 31.222656 L 136.996094 166.605469 L -3.800781 31.695312 Z M 125.921875 -103.6875 " clip-rule="nonzero"/></clipPath><clipPath id="clip-98"><path d="M 125.921875 -103.6875 L 266.71875 31.222656 L 136.996094 166.605469 L -3.800781 31.695312 Z M 125.921875 -103.6875 " clip-rule="nonzero"/></clipPath><clipPath id="clip-99"><path d="M 58 7 L 106 7 L 106 36 L 58 36 Z M 58 7 " clip-rule="nonzero"/></clipPath><clipPath id="clip-100"><path d="M 125.921875 -103.6875 L 266.71875 31.222656 L 136.996094 166.605469 L -3.800781 31.695312 Z M 125.921875 -103.6875 " clip-rule="nonzero"/></clipPath><clipPath id="clip-101"><path d="M 125.921875 -103.6875 L 266.71875 31.222656 L 136.996094 166.605469 L -3.800781 31.695312 Z M 125.921875 -103.6875 " clip-rule="nonzero"/></clipPath><clipPath id="clip-102"><path d="M 136 7 L 184 7 L 184 37 L 136 37 Z M 136 7 " clip-rule="nonzero"/></clipPath><clipPath id="clip-103"><path d="M 125.921875 -103.6875 L 266.71875 31.222656 L 136.996094 166.605469 L -3.800781 31.695312 Z M 125.921875 -103.6875 " clip-rule="nonzero"/></clipPath><clipPath id="clip-104"><path d="M 125.921875 -103.6875 L 266.71875 31.222656 L 136.996094 166.605469 L -3.800781 31.695312 Z M 125.921875 -103.6875 " clip-rule="nonzero"/></clipPath><clipPath id="clip-105"><path d="M 214 8 L 262 8 L 262 37 L 214 37 Z M 214 8 " clip-rule="nonzero"/></clipPath><clipPath id="clip-106"><path d="M 125.921875 -103.6875 L 266.71875 31.222656 L 136.996094 166.605469 L -3.800781 31.695312 Z M 125.921875 -103.6875 " clip-rule="nonzero"/></clipPath><clipPath id="clip-107"><path d="M 125.921875 -103.6875 L 266.71875 31.222656 L 136.996094 166.605469 L -3.800781 31.695312 Z M 125.921875 -103.6875 " clip-rule="nonzero"/></clipPath></defs><g clip-path="url(#clip-0)"><g clip-path="url(#clip-1)"><g clip-path="url(#clip-2)"><path fill="rgb(39.99939%, 19.999695%, 59.999084%)" d="M 8.664062 35.449219 C 28.515625 35.519531 28.019531 7.46875 47.871094 7.539062 L 39.296875 7.507812 C 19.445312 7.4375 19.941406 35.488281 0.0859375 35.417969 Z M 8.664062 35.449219 " fill-opacity="1" fill-rule="nonzero"/></g></g></g><g clip-path="url(#clip-3)"><g clip-path="url(#clip-4)"><g clip-path="url(#clip-5)"><path fill="rgb(39.99939%, 19.999695%, 59.999084%)" d="M 27.40625 35.511719 C 47.257812 35.585938 46.761719 7.53125 66.613281 7.605469 L 58.035156 7.574219 C 38.183594 7.503906 38.679688 35.554688 18.828125 35.484375 Z M 27.40625 35.511719 " fill-opacity="1" fill-rule="nonzero"/></g></g></g><g clip-path="url(#clip-6)"><g clip-path="url(#clip-7)"><g clip-path="url(#clip-8)"><path fill="rgb(39.99939%, 19.999695%, 59.999084%)" d="M 78.226562 35.695312 C 58.375 35.625 59.148438 7.578125 39.300781 7.507812 L 47.875 7.535156 C 67.722656 7.609375 66.949219 35.65625 86.800781 35.726562 Z M 78.226562 35.695312 " fill-opacity="1" fill-rule="nonzero"/></g></g></g><g clip-path="url(#clip-9)"><g clip-path="url(#clip-10)"><g clip-path="url(#clip-11)"><path fill="rgb(39.99939%, 19.999695%, 59.999084%)" d="M 86.804688 35.722656 C 106.652344 35.796875 106.160156 7.742188 126.011719 7.816406 L 117.433594 7.785156 C 97.585938 7.710938 98.082031 35.765625 78.230469 35.691406 Z M 86.804688 35.722656 " fill-opacity="1" fill-rule="nonzero"/></g></g></g><g clip-path="url(#clip-12)"><g clip-path="url(#clip-13)"><g clip-path="url(#clip-14)"><path fill="rgb(39.99939%, 19.999695%, 59.999084%)" d="M 105.539062 35.796875 C 125.390625 35.867188 124.890625 7.816406 144.746094 7.886719 L 136.167969 7.855469 C 116.316406 7.785156 116.8125 35.835938 96.960938 35.765625 Z M 105.539062 35.796875 " fill-opacity="1" fill-rule="nonzero"/></g></g></g><g clip-path="url(#clip-15)"><g clip-path="url(#clip-16)"><g clip-path="url(#clip-17)"><path fill="rgb(39.99939%, 19.999695%, 59.999084%)" d="M 156.359375 35.980469 C 136.507812 35.910156 137.285156 7.859375 117.433594 7.789062 L 126.011719 7.820312 C 145.859375 7.890625 145.085938 35.9375 164.941406 36.011719 Z M 156.359375 35.980469 " fill-opacity="1" fill-rule="nonzero"/></g></g></g><g clip-path="url(#clip-18)"><g clip-path="url(#clip-19)"><g clip-path="url(#clip-20)"><path fill="rgb(39.99939%, 19.999695%, 59.999084%)" d="M 164.933594 36.007812 C 184.78125 36.078125 184.289062 8.027344 204.144531 8.097656 L 195.5625 8.066406 C 175.710938 7.996094 176.207031 36.046875 156.355469 35.976562 Z M 164.933594 36.007812 " fill-opacity="1" fill-rule="nonzero"/></g></g></g><g clip-path="url(#clip-21)"><g clip-path="url(#clip-22)"><g clip-path="url(#clip-23)"><path fill="rgb(39.99939%, 19.999695%, 59.999084%)" d="M 183.671875 36.070312 C 203.519531 36.144531 203.027344 8.089844 222.878906 8.164062 L 214.300781 8.132812 C 194.449219 8.0625 194.945312 36.113281 175.09375 36.039062 Z M 183.671875 36.070312 " fill-opacity="1" fill-rule="nonzero"/></g></g></g><g clip-path="url(#clip-24)"><g clip-path="url(#clip-25)"><g clip-path="url(#clip-26)"><path fill="rgb(39.99939%, 19.999695%, 59.999084%)" d="M 234.496094 36.257812 C 214.644531 36.183594 215.421875 8.136719 195.570312 8.066406 L 204.148438 8.097656 C 224 8.167969 223.222656 36.214844 243.078125 36.289062 Z M 234.496094 36.257812 " fill-opacity="1" fill-rule="nonzero"/></g></g></g><g clip-path="url(#clip-27)"><g clip-path="url(#clip-28)"><g clip-path="url(#clip-29)"><path fill="rgb(100%, 84.309387%, 0%)" d="M 24.234375 25.363281 L 24.191406 34.050781 C 24.1875 34.707031 24.613281 35.238281 25.140625 35.238281 C 25.667969 35.242188 26.09375 34.714844 26.097656 34.058594 L 26.140625 25.367188 C 26.144531 24.710938 25.71875 24.179688 25.195312 24.179688 C 24.667969 24.175781 24.238281 24.707031 24.234375 25.363281 Z M 24.234375 25.363281 " fill-opacity="1" fill-rule="nonzero"/></g></g></g><g clip-path="url(#clip-30)"><g clip-path="url(#clip-31)"><g clip-path="url(#clip-32)"><path fill="rgb(100%, 84.309387%, 0%)" d="M 30.191406 17.21875 L 30.113281 32.5625 C 30.109375 33.21875 30.535156 33.75 31.0625 33.75 C 31.589844 33.75 32.015625 33.226562 32.019531 32.570312 L 32.097656 17.226562 C 32.101562 16.570312 31.675781 16.039062 31.152344 16.039062 C 30.625 16.035156 30.195312 16.566406 30.191406 17.21875 Z M 30.191406 17.21875 " fill-opacity="1" fill-rule="nonzero"/></g></g></g><g clip-path="url(#clip-33)"><g clip-path="url(#clip-34)"><g clip-path="url(#clip-35)"><path fill="rgb(100%, 84.309387%, 0%)" d="M 36.140625 10.527344 L 36.054688 27.84375 C 36.050781 28.5 36.472656 29.035156 37.003906 29.035156 C 37.53125 29.039062 37.957031 28.503906 37.960938 27.851562 L 38.046875 10.53125 C 38.050781 9.878906 37.625 9.347656 37.101562 9.34375 C 36.574219 9.34375 36.144531 9.871094 36.140625 10.527344 Z M 36.140625 10.527344 " fill-opacity="1" fill-rule="nonzero"/></g></g></g><g clip-path="url(#clip-36)"><g clip-path="url(#clip-37)"><g clip-path="url(#clip-38)"><path fill="rgb(100%, 84.309387%, 0%)" d="M 42.066406 8.800781 L 42.011719 20.160156 C 42.007812 20.8125 42.433594 21.347656 42.957031 21.347656 C 43.480469 21.351562 43.914062 20.820312 43.917969 20.164062 L 43.972656 8.808594 C 43.976562 8.152344 43.550781 7.621094 43.023438 7.621094 C 42.496094 7.617188 42.070312 8.148438 42.066406 8.800781 Z M 42.066406 8.800781 " fill-opacity="1" fill-rule="nonzero"/></g></g></g><g clip-path="url(#clip-39)"><g clip-path="url(#clip-40)"><g clip-path="url(#clip-41)"><path fill="rgb(100%, 84.309387%, 0%)" d="M 79.617188 21.082031 L 79.550781 34.253906 C 79.546875 34.90625 79.972656 35.4375 80.5 35.441406 C 81.027344 35.441406 81.457031 34.914062 81.457031 34.257812 L 81.523438 21.089844 C 81.527344 20.4375 81.101562 19.902344 80.574219 19.898438 C 80.050781 19.898438 79.617188 20.429688 79.617188 21.082031 Z M 79.617188 21.082031 " fill-opacity="1" fill-rule="nonzero"/></g></g></g><g clip-path="url(#clip-42)"><g clip-path="url(#clip-43)"><g clip-path="url(#clip-44)"><path fill="rgb(100%, 84.309387%, 0%)" d="M 73.730469 14.148438 L 73.636719 32.71875 C 73.632812 33.375 74.058594 33.90625 74.585938 33.90625 C 75.113281 33.910156 75.542969 33.382812 75.546875 32.726562 L 75.640625 14.15625 C 75.640625 13.5 75.21875 12.96875 74.691406 12.964844 C 74.164062 12.964844 73.734375 13.492188 73.730469 14.148438 Z M 73.730469 14.148438 " fill-opacity="1" fill-rule="nonzero"/></g></g></g><g clip-path="url(#clip-45)"><g clip-path="url(#clip-46)"><g clip-path="url(#clip-47)"><path fill="rgb(100%, 84.309387%, 0%)" d="M 67.832031 10.632812 L 67.742188 27.953125 C 67.742188 28.605469 68.167969 29.140625 68.691406 29.144531 C 69.21875 29.144531 69.648438 28.613281 69.652344 27.960938 L 69.738281 10.640625 C 69.742188 9.984375 69.316406 9.453125 68.789062 9.453125 C 68.265625 9.449219 67.832031 9.980469 67.832031 10.632812 Z M 67.832031 10.632812 " fill-opacity="1" fill-rule="nonzero"/></g></g></g><g clip-path="url(#clip-48)"><g clip-path="url(#clip-49)"><g clip-path="url(#clip-50)"><path fill="rgb(100%, 84.309387%, 0%)" d="M 61.921875 8.871094 L 61.863281 20.226562 C 61.859375 20.882812 62.28125 21.417969 62.8125 21.417969 C 63.34375 21.417969 63.769531 20.890625 63.773438 20.234375 L 63.828125 8.878906 C 63.832031 8.222656 63.410156 7.691406 62.882812 7.6875 C 62.355469 7.6875 61.925781 8.214844 61.921875 8.871094 Z M 61.921875 8.871094 " fill-opacity="1" fill-rule="nonzero"/></g></g></g><g clip-path="url(#clip-51)"><g clip-path="url(#clip-52)"><g clip-path="url(#clip-53)"><path fill="rgb(100%, 84.309387%, 0%)" d="M 102.367188 25.644531 L 102.324219 34.335938 C 102.320312 34.992188 102.746094 35.523438 103.273438 35.523438 C 103.800781 35.527344 104.230469 34.996094 104.234375 34.34375 L 104.277344 25.652344 C 104.28125 24.996094 103.855469 24.464844 103.328125 24.464844 C 102.800781 24.460938 102.371094 24.988281 102.367188 25.644531 Z M 102.367188 25.644531 " fill-opacity="1" fill-rule="nonzero"/></g></g></g><g clip-path="url(#clip-54)"><g clip-path="url(#clip-55)"><g clip-path="url(#clip-56)"><path fill="rgb(100%, 84.309387%, 0%)" d="M 108.332031 17.496094 L 108.253906 32.839844 C 108.253906 33.496094 108.675781 34.023438 109.203125 34.027344 C 109.730469 34.027344 110.15625 33.5 110.160156 32.847656 L 110.238281 17.503906 C 110.242188 16.847656 109.816406 16.316406 109.292969 16.316406 C 108.769531 16.3125 108.335938 16.84375 108.332031 17.496094 Z M 108.332031 17.496094 " fill-opacity="1" fill-rule="nonzero"/></g></g></g><g clip-path="url(#clip-57)"><g clip-path="url(#clip-58)"><g clip-path="url(#clip-59)"><path fill="rgb(100%, 84.309387%, 0%)" d="M 114.277344 10.804688 L 114.191406 28.121094 C 114.1875 28.777344 114.613281 29.3125 115.140625 29.3125 C 115.664062 29.316406 116.097656 28.78125 116.097656 28.128906 L 116.183594 10.808594 C 116.1875 10.15625 115.765625 9.625 115.238281 9.621094 C 114.707031 9.621094 114.28125 10.148438 114.277344 10.804688 Z M 114.277344 10.804688 " fill-opacity="1" fill-rule="nonzero"/></g></g></g><g clip-path="url(#clip-60)"><g clip-path="url(#clip-61)"><g clip-path="url(#clip-62)"><path fill="rgb(100%, 84.309387%, 0%)" d="M 120.207031 9.082031 L 120.148438 20.4375 C 120.144531 21.09375 120.570312 21.625 121.09375 21.628906 C 121.617188 21.628906 122.050781 21.101562 122.054688 20.445312 L 122.109375 9.085938 C 122.113281 8.429688 121.691406 7.902344 121.164062 7.898438 C 120.636719 7.898438 120.210938 8.425781 120.207031 9.082031 Z M 120.207031 9.082031 " fill-opacity="1" fill-rule="nonzero"/></g></g></g><g clip-path="url(#clip-63)"><g clip-path="url(#clip-64)"><g clip-path="url(#clip-65)"><path fill="rgb(100%, 84.309387%, 0%)" d="M 157.753906 21.367188 L 157.6875 34.535156 C 157.683594 35.191406 158.105469 35.722656 158.632812 35.722656 C 159.160156 35.726562 159.589844 35.195312 159.59375 34.542969 L 159.660156 21.371094 C 159.660156 20.722656 159.242188 20.183594 158.710938 20.183594 C 158.179688 20.179688 157.757812 20.714844 157.753906 21.367188 Z M 157.753906 21.367188 " fill-opacity="1" fill-rule="nonzero"/></g></g></g><g clip-path="url(#clip-66)"><g clip-path="url(#clip-67)"><g clip-path="url(#clip-68)"><path fill="rgb(100%, 84.309387%, 0%)" d="M 151.867188 14.425781 L 151.773438 33 C 151.769531 33.652344 152.191406 34.183594 152.722656 34.183594 C 153.253906 34.1875 153.671875 33.660156 153.675781 33.003906 L 153.765625 14.433594 C 153.769531 13.777344 153.351562 13.246094 152.828125 13.246094 C 152.300781 13.242188 151.871094 13.769531 151.867188 14.425781 Z M 151.867188 14.425781 " fill-opacity="1" fill-rule="nonzero"/></g></g></g><g clip-path="url(#clip-69)"><g clip-path="url(#clip-70)"><g clip-path="url(#clip-71)"><path fill="rgb(100%, 84.309387%, 0%)" d="M 145.964844 10.917969 L 145.878906 28.234375 C 145.875 28.890625 146.300781 29.425781 146.828125 29.429688 C 147.351562 29.429688 147.785156 28.898438 147.789062 28.242188 L 147.875 10.925781 C 147.878906 10.269531 147.453125 9.738281 146.925781 9.738281 C 146.398438 9.734375 145.96875 10.261719 145.964844 10.917969 Z M 145.964844 10.917969 " fill-opacity="1" fill-rule="nonzero"/></g></g></g><g clip-path="url(#clip-72)"><g clip-path="url(#clip-73)"><g clip-path="url(#clip-74)"><path fill="rgb(100%, 84.309387%, 0%)" d="M 140.058594 9.152344 L 140 20.507812 C 139.996094 21.164062 140.417969 21.699219 140.949219 21.699219 C 141.480469 21.703125 141.90625 21.171875 141.910156 20.515625 L 141.964844 9.160156 C 141.96875 8.503906 141.542969 7.972656 141.015625 7.972656 C 140.492188 7.96875 140.058594 8.496094 140.058594 9.152344 Z M 140.058594 9.152344 " fill-opacity="1" fill-rule="nonzero"/></g></g></g><g clip-path="url(#clip-75)"><g clip-path="url(#clip-76)"><g clip-path="url(#clip-77)"><path fill="rgb(100%, 84.309387%, 0%)" d="M 180.507812 25.925781 L 180.460938 34.617188 C 180.460938 35.273438 180.886719 35.804688 181.410156 35.804688 C 181.9375 35.808594 182.367188 35.277344 182.371094 34.625 L 182.414062 25.933594 C 182.417969 25.277344 181.992188 24.746094 181.464844 24.742188 C 180.941406 24.742188 180.507812 25.269531 180.507812 25.925781 Z M 180.507812 25.925781 " fill-opacity="1" fill-rule="nonzero"/></g></g></g><g clip-path="url(#clip-78)"><g clip-path="url(#clip-79)"><g clip-path="url(#clip-80)"><path fill="rgb(100%, 84.309387%, 0%)" d="M 186.464844 17.78125 L 186.390625 33.125 C 186.386719 33.777344 186.808594 34.308594 187.339844 34.308594 C 187.859375 34.3125 188.292969 33.785156 188.292969 33.128906 L 188.371094 17.789062 C 188.375 17.132812 187.949219 16.601562 187.425781 16.597656 C 186.898438 16.597656 186.46875 17.125 186.464844 17.78125 Z M 186.464844 17.78125 " fill-opacity="1" fill-rule="nonzero"/></g></g></g><g clip-path="url(#clip-81)"><g clip-path="url(#clip-82)"><g clip-path="url(#clip-83)"><path fill="rgb(100%, 84.309387%, 0%)" d="M 192.414062 11.085938 L 192.328125 28.40625 C 192.324219 29.058594 192.75 29.59375 193.277344 29.597656 C 193.804688 29.597656 194.234375 29.066406 194.238281 28.410156 L 194.324219 11.09375 C 194.328125 10.4375 193.902344 9.90625 193.375 9.90625 C 192.851562 9.902344 192.417969 10.433594 192.414062 11.085938 Z M 192.414062 11.085938 " fill-opacity="1" fill-rule="nonzero"/></g></g></g><g clip-path="url(#clip-84)"><g clip-path="url(#clip-85)"><g clip-path="url(#clip-86)"><path fill="rgb(100%, 84.309387%, 0%)" d="M 198.339844 9.359375 L 198.285156 20.71875 C 198.28125 21.371094 198.707031 21.90625 199.230469 21.90625 C 199.757812 21.910156 200.1875 21.378906 200.1875 20.722656 L 200.246094 9.367188 C 200.25 8.710938 199.824219 8.179688 199.296875 8.179688 C 198.773438 8.175781 198.34375 8.707031 198.339844 9.359375 Z M 198.339844 9.359375 " fill-opacity="1" fill-rule="nonzero"/></g></g></g><g clip-path="url(#clip-87)"><g clip-path="url(#clip-88)"><g clip-path="url(#clip-89)"><path fill="rgb(100%, 84.309387%, 0%)" d="M 235.886719 21.644531 L 235.824219 34.8125 C 235.820312 35.46875 236.242188 36 236.765625 36.003906 C 237.292969 36.003906 237.722656 35.476562 237.726562 34.820312 L 237.792969 21.652344 C 237.796875 21 237.367188 20.464844 236.84375 20.460938 C 236.320312 20.460938 235.890625 20.992188 235.886719 21.644531 Z M 235.886719 21.644531 " fill-opacity="1" fill-rule="nonzero"/></g></g></g><g clip-path="url(#clip-90)"><g clip-path="url(#clip-91)"><g clip-path="url(#clip-92)"><path fill="rgb(100%, 84.309387%, 0%)" d="M 230.007812 14.710938 L 229.914062 33.285156 C 229.914062 33.9375 230.335938 34.46875 230.863281 34.472656 C 231.394531 34.472656 231.8125 33.945312 231.816406 33.292969 L 231.910156 14.71875 C 231.910156 14.0625 231.496094 13.53125 230.96875 13.53125 C 230.441406 13.527344 230.011719 14.058594 230.007812 14.710938 Z M 230.007812 14.710938 " fill-opacity="1" fill-rule="nonzero"/></g></g></g><g clip-path="url(#clip-93)"><g clip-path="url(#clip-94)"><g clip-path="url(#clip-95)"><path fill="rgb(100%, 84.309387%, 0%)" d="M 224.105469 11.199219 L 224.019531 28.519531 C 224.015625 29.171875 224.441406 29.710938 224.96875 29.710938 C 225.492188 29.714844 225.925781 29.179688 225.929688 28.527344 L 226.015625 11.207031 C 226.019531 10.550781 225.589844 10.023438 225.066406 10.019531 C 224.539062 10.019531 224.109375 10.546875 224.105469 11.199219 Z M 224.105469 11.199219 " fill-opacity="1" fill-rule="nonzero"/></g></g></g><g clip-path="url(#clip-96)"><g clip-path="url(#clip-97)"><g clip-path="url(#clip-98)"><path fill="rgb(100%, 84.309387%, 0%)" d="M 218.191406 9.429688 L 218.132812 20.785156 C 218.132812 21.441406 218.554688 21.976562 219.082031 21.976562 C 219.609375 21.980469 220.039062 21.449219 220.042969 20.792969 L 220.101562 9.4375 C 220.105469 8.78125 219.675781 8.25 219.152344 8.25 C 218.625 8.246094 218.195312 8.773438 218.191406 9.429688 Z M 218.191406 9.429688 " fill-opacity="1" fill-rule="nonzero"/></g></g></g><g clip-path="url(#clip-99)"><g clip-path="url(#clip-100)"><g clip-path="url(#clip-101)"><path fill="rgb(39.99939%, 19.999695%, 59.999084%)" d="M 96.960938 35.765625 C 77.109375 35.695312 77.882812 7.648438 58.03125 7.578125 L 66.609375 7.609375 C 86.460938 7.679688 85.683594 35.726562 105.535156 35.796875 Z M 96.960938 35.765625 " fill-opacity="1" fill-rule="nonzero"/></g></g></g><g clip-path="url(#clip-102)"><g clip-path="url(#clip-103)"><g clip-path="url(#clip-104)"><path fill="rgb(39.99939%, 19.999695%, 59.999084%)" d="M 175.09375 36.046875 C 155.242188 35.976562 156.019531 7.925781 136.167969 7.855469 L 144.746094 7.886719 C 164.59375 7.957031 163.820312 36.003906 183.671875 36.074219 Z M 175.09375 36.046875 " fill-opacity="1" fill-rule="nonzero"/></g></g></g><g clip-path="url(#clip-105)"><g clip-path="url(#clip-106)"><g clip-path="url(#clip-107)"><path fill="rgb(39.99939%, 19.999695%, 59.999084%)" d="M 253.230469 36.320312 C 233.378906 36.25 234.15625 8.203125 214.300781 8.132812 L 222.878906 8.164062 C 242.730469 8.234375 241.953125 36.28125 261.808594 36.351562 Z M 253.230469 36.320312 " fill-opacity="1" fill-rule="nonzero"/></g></g></g></svg>