<?xml version="1.0" encoding="UTF-8"?><svg xmlns="http://www.w3.org/2000/svg" xmlns:xlink="http://www.w3.org/1999/xlink" contentScriptType="text/ecmascript" width="750" zoomAndPan="magnify" contentStyleType="text/css" viewBox="0 0 750 104.999996" height="104.999996" preserveAspectRatio="xMidYMid meet" version="1.0"><defs><clipPath id="clip-0"><path d="M 1 10 L 139 10 L 139 91 L 1 91 Z M 1 10 " clip-rule="nonzero"/></clipPath><clipPath id="clip-1"><path d="M 362.253906 -308.191406 L 766.238281 78.898438 L 394.710938 466.632812 L -9.269531 79.542969 Z M 362.253906 -308.191406 " clip-rule="nonzero"/></clipPath><clipPath id="clip-2"><path d="M 362.253906 -308.191406 L 766.238281 78.898438 L 394.710938 466.632812 L -9.269531 79.542969 Z M 362.253906 -308.191406 " clip-rule="nonzero"/></clipPath><clipPath id="clip-3"><path d="M 55 10 L 193 10 L 193 91 L 55 91 Z M 55 10 " clip-rule="nonzero"/></clipPath><clipPath id="clip-4"><path d="M 362.253906 -308.191406 L 766.238281 78.898438 L 394.710938 466.632812 L -9.269531 79.542969 Z M 362.253906 -308.191406 " clip-rule="nonzero"/></clipPath><clipPath id="clip-5"><path d="M 362.253906 -308.191406 L 766.238281 78.898438 L 394.710938 466.632812 L -9.269531 79.542969 Z M 362.253906 -308.191406 " clip-rule="nonzero"/></clipPath><clipPath id="clip-6"><path d="M 114 10 L 251 10 L 251 92 L 114 92 Z M 114 10 " clip-rule="nonzero"/></clipPath><clipPath id="clip-7"><path d="M 362.253906 -308.191406 L 766.238281 78.898438 L 394.710938 466.632812 L -9.269531 79.542969 Z M 362.253906 -308.191406 " clip-rule="nonzero"/></clipPath><clipPath id="clip-8"><path d="M 362.253906 -308.191406 L 766.238281 78.898438 L 394.710938 466.632812 L -9.269531 79.542969 Z M 362.253906 -308.191406 " clip-rule="nonzero"/></clipPath><clipPath id="clip-9"><path d="M 225 11 L 363 11 L 363 92 L 225 92 Z M 225 11 " clip-rule="nonzero"/></clipPath><clipPath id="clip-10"><path d="M 362.253906 -308.191406 L 766.238281 78.898438 L 394.710938 466.632812 L -9.269531 79.542969 Z M 362.253906 -308.191406 " clip-rule="nonzero"/></clipPath><clipPath id="clip-11"><path d="M 362.253906 -308.191406 L 766.238281 78.898438 L 394.710938 466.632812 L -9.269531 79.542969 Z M 362.253906 -308.191406 " clip-rule="nonzero"/></clipPath><clipPath id="clip-12"><path d="M 279 11 L 417 11 L 417 92 L 279 92 Z M 279 11 " clip-rule="nonzero"/></clipPath><clipPath id="clip-13"><path d="M 362.253906 -308.191406 L 766.238281 78.898438 L 394.710938 466.632812 L -9.269531 79.542969 Z M 362.253906 -308.191406 " clip-rule="nonzero"/></clipPath><clipPath id="clip-14"><path d="M 362.253906 -308.191406 L 766.238281 78.898438 L 394.710938 466.632812 L -9.269531 79.542969 Z M 362.253906 -308.191406 " clip-rule="nonzero"/></clipPath><clipPath id="clip-15"><path d="M 338 11 L 475 11 L 475 93 L 338 93 Z M 338 11 " clip-rule="nonzero"/></clipPath><clipPath id="clip-16"><path d="M 362.253906 -308.191406 L 766.238281 78.898438 L 394.710938 466.632812 L -9.269531 79.542969 Z M 362.253906 -308.191406 " clip-rule="nonzero"/></clipPath><clipPath id="clip-17"><path d="M 362.253906 -308.191406 L 766.238281 78.898438 L 394.710938 466.632812 L -9.269531 79.542969 Z M 362.253906 -308.191406 " clip-rule="nonzero"/></clipPath><clipPath id="clip-18"><path d="M 449 12 L 587 12 L 587 93 L 449 93 Z M 449 12 " clip-rule="nonzero"/></clipPath><clipPath id="clip-19"><path d="M 362.253906 -308.191406 L 766.238281 78.898438 L 394.710938 466.632812 L -9.269531 79.542969 Z M 362.253906 -308.191406 " clip-rule="nonzero"/></clipPath><clipPath id="clip-20"><path d="M 362.253906 -308.191406 L 766.238281 78.898438 L 394.710938 466.632812 L -9.269531 79.542969 Z M 362.253906 -308.191406 " clip-rule="nonzero"/></clipPath><clipPath id="clip-21"><path d="M 503 12 L 641 12 L 641 93 L 503 93 Z M 503 12 " clip-rule="nonzero"/></clipPath><clipPath id="clip-22"><path d="M 362.253906 -308.191406 L 766.238281 78.898438 L 394.710938 466.632812 L -9.269531 79.542969 Z M 362.253906 -308.191406 " clip-rule="nonzero"/></clipPath><clipPath id="clip-23"><path d="M 362.253906 -308.191406 L 766.238281 78.898438 L 394.710938 466.632812 L -9.269531 79.542969 Z M 362.253906 -308.191406 " clip-rule="nonzero"/></clipPath><clipPath id="clip-24"><path d="M 562 12 L 699 12 L 699 94 L 562 94 Z M 562 12 " clip-rule="nonzero"/></clipPath><clipPath id="clip-25"><path d="M 362.253906 -308.191406 L 766.238281 78.898438 L 394.710938 466.632812 L -9.269531 79.542969 Z M 362.253906 -308.191406 " clip-rule="nonzero"/></clipPath><clipPath id="clip-26"><path d="M 362.253906 -308.191406 L 766.238281 78.898438 L 394.710938 466.632812 L -9.269531 79.542969 Z M 362.253906 -308.191406 " clip-rule="nonzero"/></clipPath><clipPath id="clip-27"><path d="M 70 58 L 77 58 L 77 90 L 70 90 Z M 70 58 " clip-rule="nonzero"/></clipPath><clipPath id="clip-28"><path d="M 362.253906 -308.191406 L 766.238281 78.898438 L 394.710938 466.632812 L -9.269531 79.542969 Z M 362.253906 -308.191406 " clip-rule="nonzero"/></clipPath><clipPath id="clip-29"><path d="M 362.253906 -308.191406 L 766.238281 78.898438 L 394.710938 466.632812 L -9.269531 79.542969 Z M 362.253906 -308.191406 " clip-rule="nonzero"/></clipPath><clipPath id="clip-30"><path d="M 87 34 L 94 34 L 94 86 L 87 86 Z M 87 34 " clip-rule="nonzero"/></clipPath><clipPath id="clip-31"><path d="M 362.253906 -308.191406 L 766.238281 78.898438 L 394.710938 466.632812 L -9.269531 79.542969 Z M 362.253906 -308.191406 " clip-rule="nonzero"/></clipPath><clipPath id="clip-32"><path d="M 362.253906 -308.191406 L 766.238281 78.898438 L 394.710938 466.632812 L -9.269531 79.542969 Z M 362.253906 -308.191406 " clip-rule="nonzero"/></clipPath><clipPath id="clip-33"><path d="M 104 15 L 111 15 L 111 73 L 104 73 Z M 104 15 " clip-rule="nonzero"/></clipPath><clipPath id="clip-34"><path d="M 362.253906 -308.191406 L 766.238281 78.898438 L 394.710938 466.632812 L -9.269531 79.542969 Z M 362.253906 -308.191406 " clip-rule="nonzero"/></clipPath><clipPath id="clip-35"><path d="M 362.253906 -308.191406 L 766.238281 78.898438 L 394.710938 466.632812 L -9.269531 79.542969 Z M 362.253906 -308.191406 " clip-rule="nonzero"/></clipPath><clipPath id="clip-36"><path d="M 122 10 L 128 10 L 128 51 L 122 51 Z M 122 10 " clip-rule="nonzero"/></clipPath><clipPath id="clip-37"><path d="M 362.253906 -308.191406 L 766.238281 78.898438 L 394.710938 466.632812 L -9.269531 79.542969 Z M 362.253906 -308.191406 " clip-rule="nonzero"/></clipPath><clipPath id="clip-38"><path d="M 362.253906 -308.191406 L 766.238281 78.898438 L 394.710938 466.632812 L -9.269531 79.542969 Z M 362.253906 -308.191406 " clip-rule="nonzero"/></clipPath><clipPath id="clip-39"><path d="M 229 45 L 236 45 L 236 91 L 229 91 Z M 229 45 " clip-rule="nonzero"/></clipPath><clipPath id="clip-40"><path d="M 362.253906 -308.191406 L 766.238281 78.898438 L 394.710938 466.632812 L -9.269531 79.542969 Z M 362.253906 -308.191406 " clip-rule="nonzero"/></clipPath><clipPath id="clip-41"><path d="M 362.253906 -308.191406 L 766.238281 78.898438 L 394.710938 466.632812 L -9.269531 79.542969 Z M 362.253906 -308.191406 " clip-rule="nonzero"/></clipPath><clipPath id="clip-42"><path d="M 212 26 L 219 26 L 219 87 L 212 87 Z M 212 26 " clip-rule="nonzero"/></clipPath><clipPath id="clip-43"><path d="M 362.253906 -308.191406 L 766.238281 78.898438 L 394.710938 466.632812 L -9.269531 79.542969 Z M 362.253906 -308.191406 " clip-rule="nonzero"/></clipPath><clipPath id="clip-44"><path d="M 362.253906 -308.191406 L 766.238281 78.898438 L 394.710938 466.632812 L -9.269531 79.542969 Z M 362.253906 -308.191406 " clip-rule="nonzero"/></clipPath><clipPath id="clip-45"><path d="M 195 15 L 202 15 L 202 73 L 195 73 Z M 195 15 " clip-rule="nonzero"/></clipPath><clipPath id="clip-46"><path d="M 362.253906 -308.191406 L 766.238281 78.898438 L 394.710938 466.632812 L -9.269531 79.542969 Z M 362.253906 -308.191406 " clip-rule="nonzero"/></clipPath><clipPath id="clip-47"><path d="M 362.253906 -308.191406 L 766.238281 78.898438 L 394.710938 466.632812 L -9.269531 79.542969 Z M 362.253906 -308.191406 " clip-rule="nonzero"/></clipPath><clipPath id="clip-48"><path d="M 178 10 L 185 10 L 185 51 L 178 51 Z M 178 10 " clip-rule="nonzero"/></clipPath><clipPath id="clip-49"><path d="M 362.253906 -308.191406 L 766.238281 78.898438 L 394.710938 466.632812 L -9.269531 79.542969 Z M 362.253906 -308.191406 " clip-rule="nonzero"/></clipPath><clipPath id="clip-50"><path d="M 362.253906 -308.191406 L 766.238281 78.898438 L 394.710938 466.632812 L -9.269531 79.542969 Z M 362.253906 -308.191406 " clip-rule="nonzero"/></clipPath><clipPath id="clip-51"><path d="M 294 59 L 301 59 L 301 91 L 294 91 Z M 294 59 " clip-rule="nonzero"/></clipPath><clipPath id="clip-52"><path d="M 362.253906 -308.191406 L 766.238281 78.898438 L 394.710938 466.632812 L -9.269531 79.542969 Z M 362.253906 -308.191406 " clip-rule="nonzero"/></clipPath><clipPath id="clip-53"><path d="M 362.253906 -308.191406 L 766.238281 78.898438 L 394.710938 466.632812 L -9.269531 79.542969 Z M 362.253906 -308.191406 " clip-rule="nonzero"/></clipPath><clipPath id="clip-54"><path d="M 311 35 L 318 35 L 318 87 L 311 87 Z M 311 35 " clip-rule="nonzero"/></clipPath><clipPath id="clip-55"><path d="M 362.253906 -308.191406 L 766.238281 78.898438 L 394.710938 466.632812 L -9.269531 79.542969 Z M 362.253906 -308.191406 " clip-rule="nonzero"/></clipPath><clipPath id="clip-56"><path d="M 362.253906 -308.191406 L 766.238281 78.898438 L 394.710938 466.632812 L -9.269531 79.542969 Z M 362.253906 -308.191406 " clip-rule="nonzero"/></clipPath><clipPath id="clip-57"><path d="M 328 16 L 335 16 L 335 74 L 328 74 Z M 328 16 " clip-rule="nonzero"/></clipPath><clipPath id="clip-58"><path d="M 362.253906 -308.191406 L 766.238281 78.898438 L 394.710938 466.632812 L -9.269531 79.542969 Z M 362.253906 -308.191406 " clip-rule="nonzero"/></clipPath><clipPath id="clip-59"><path d="M 362.253906 -308.191406 L 766.238281 78.898438 L 394.710938 466.632812 L -9.269531 79.542969 Z M 362.253906 -308.191406 " clip-rule="nonzero"/></clipPath><clipPath id="clip-60"><path d="M 346 11 L 352 11 L 352 52 L 346 52 Z M 346 11 " clip-rule="nonzero"/></clipPath><clipPath id="clip-61"><path d="M 362.253906 -308.191406 L 766.238281 78.898438 L 394.710938 466.632812 L -9.269531 79.542969 Z M 362.253906 -308.191406 " clip-rule="nonzero"/></clipPath><clipPath id="clip-62"><path d="M 362.253906 -308.191406 L 766.238281 78.898438 L 394.710938 466.632812 L -9.269531 79.542969 Z M 362.253906 -308.191406 " clip-rule="nonzero"/></clipPath><clipPath id="clip-63"><path d="M 453 46 L 460 46 L 460 92 L 453 92 Z M 453 46 " clip-rule="nonzero"/></clipPath><clipPath id="clip-64"><path d="M 362.253906 -308.191406 L 766.238281 78.898438 L 394.710938 466.632812 L -9.269531 79.542969 Z M 362.253906 -308.191406 " clip-rule="nonzero"/></clipPath><clipPath id="clip-65"><path d="M 362.253906 -308.191406 L 766.238281 78.898438 L 394.710938 466.632812 L -9.269531 79.542969 Z M 362.253906 -308.191406 " clip-rule="nonzero"/></clipPath><clipPath id="clip-66"><path d="M 436 27 L 443 27 L 443 88 L 436 88 Z M 436 27 " clip-rule="nonzero"/></clipPath><clipPath id="clip-67"><path d="M 362.253906 -308.191406 L 766.238281 78.898438 L 394.710938 466.632812 L -9.269531 79.542969 Z M 362.253906 -308.191406 " clip-rule="nonzero"/></clipPath><clipPath id="clip-68"><path d="M 362.253906 -308.191406 L 766.238281 78.898438 L 394.710938 466.632812 L -9.269531 79.542969 Z M 362.253906 -308.191406 " clip-rule="nonzero"/></clipPath><clipPath id="clip-69"><path d="M 419 16 L 426 16 L 426 74 L 419 74 Z M 419 16 " clip-rule="nonzero"/></clipPath><clipPath id="clip-70"><path d="M 362.253906 -308.191406 L 766.238281 78.898438 L 394.710938 466.632812 L -9.269531 79.542969 Z M 362.253906 -308.191406 " clip-rule="nonzero"/></clipPath><clipPath id="clip-71"><path d="M 362.253906 -308.191406 L 766.238281 78.898438 L 394.710938 466.632812 L -9.269531 79.542969 Z M 362.253906 -308.191406 " clip-rule="nonzero"/></clipPath><clipPath id="clip-72"><path d="M 402 11 L 409 11 L 409 52 L 402 52 Z M 402 11 " clip-rule="nonzero"/></clipPath><clipPath id="clip-73"><path d="M 362.253906 -308.191406 L 766.238281 78.898438 L 394.710938 466.632812 L -9.269531 79.542969 Z M 362.253906 -308.191406 " clip-rule="nonzero"/></clipPath><clipPath id="clip-74"><path d="M 362.253906 -308.191406 L 766.238281 78.898438 L 394.710938 466.632812 L -9.269531 79.542969 Z M 362.253906 -308.191406 " clip-rule="nonzero"/></clipPath><clipPath id="clip-75"><path d="M 518 60 L 525 60 L 525 92 L 518 92 Z M 518 60 " clip-rule="nonzero"/></clipPath><clipPath id="clip-76"><path d="M 362.253906 -308.191406 L 766.238281 78.898438 L 394.710938 466.632812 L -9.269531 79.542969 Z M 362.253906 -308.191406 " clip-rule="nonzero"/></clipPath><clipPath id="clip-77"><path d="M 362.253906 -308.191406 L 766.238281 78.898438 L 394.710938 466.632812 L -9.269531 79.542969 Z M 362.253906 -308.191406 " clip-rule="nonzero"/></clipPath><clipPath id="clip-78"><path d="M 535 36 L 542 36 L 542 88 L 535 88 Z M 535 36 " clip-rule="nonzero"/></clipPath><clipPath id="clip-79"><path d="M 362.253906 -308.191406 L 766.238281 78.898438 L 394.710938 466.632812 L -9.269531 79.542969 Z M 362.253906 -308.191406 " clip-rule="nonzero"/></clipPath><clipPath id="clip-80"><path d="M 362.253906 -308.191406 L 766.238281 78.898438 L 394.710938 466.632812 L -9.269531 79.542969 Z M 362.253906 -308.191406 " clip-rule="nonzero"/></clipPath><clipPath id="clip-81"><path d="M 552 17 L 559 17 L 559 75 L 552 75 Z M 552 17 " clip-rule="nonzero"/></clipPath><clipPath id="clip-82"><path d="M 362.253906 -308.191406 L 766.238281 78.898438 L 394.710938 466.632812 L -9.269531 79.542969 Z M 362.253906 -308.191406 " clip-rule="nonzero"/></clipPath><clipPath id="clip-83"><path d="M 362.253906 -308.191406 L 766.238281 78.898438 L 394.710938 466.632812 L -9.269531 79.542969 Z M 362.253906 -308.191406 " clip-rule="nonzero"/></clipPath><clipPath id="clip-84"><path d="M 570 12 L 576 12 L 576 53 L 570 53 Z M 570 12 " clip-rule="nonzero"/></clipPath><clipPath id="clip-85"><path d="M 362.253906 -308.191406 L 766.238281 78.898438 L 394.710938 466.632812 L -9.269531 79.542969 Z M 362.253906 -308.191406 " clip-rule="nonzero"/></clipPath><clipPath id="clip-86"><path d="M 362.253906 -308.191406 L 766.238281 78.898438 L 394.710938 466.632812 L -9.269531 79.542969 Z M 362.253906 -308.191406 " clip-rule="nonzero"/></clipPath><clipPath id="clip-87"><path d="M 677 47 L 684 47 L 684 93 L 677 93 Z M 677 47 " clip-rule="nonzero"/></clipPath><clipPath id="clip-88"><path d="M 362.253906 -308.191406 L 766.238281 78.898438 L 394.710938 466.632812 L -9.269531 79.542969 Z M 362.253906 -308.191406 " clip-rule="nonzero"/></clipPath><clipPath id="clip-89"><path d="M 362.253906 -308.191406 L 766.238281 78.898438 L 394.710938 466.632812 L -9.269531 79.542969 Z M 362.253906 -308.191406 " clip-rule="nonzero"/></clipPath><clipPath id="clip-90"><path d="M 660 28 L 667 28 L 667 89 L 660 89 Z M 660 28 " clip-rule="nonzero"/></clipPath><clipPath id="clip-91"><path d="M 362.253906 -308.191406 L 766.238281 78.898438 L 394.710938 466.632812 L -9.269531 79.542969 Z M 362.253906 -308.191406 " clip-rule="nonzero"/></clipPath><clipPath id="clip-92"><path d="M 362.253906 -308.191406 L 766.238281 78.898438 L 394.710938 466.632812 L -9.269531 79.542969 Z M 362.253906 -308.191406 " clip-rule="nonzero"/></clipPath><clipPath id="clip-93"><path d="M 643 18 L 650 18 L 650 75 L 643 75 Z M 643 18 " clip-rule="nonzero"/></clipPath><clipPath id="clip-94"><path d="M 362.253906 -308.191406 L 766.238281 78.898438 L 394.710938 466.632812 L -9.269531 79.542969 Z M 362.253906 -308.191406 " clip-rule="nonzero"/></clipPath><clipPath id="clip-95"><path d="M 362.253906 -308.191406 L 766.238281 78.898438 L 394.710938 466.632812 L -9.269531 79.542969 Z M 362.253906 -308.191406 " clip-rule="nonzero"/></clipPath><clipPath id="clip-96"><path d="M 626 12 L 633 12 L 633 53 L 626 53 Z M 626 12 " clip-rule="nonzero"/></clipPath><clipPath id="clip-97"><path d="M 362.253906 -308.191406 L 766.238281 78.898438 L 394.710938 466.632812 L -9.269531 79.542969 Z M 362.253906 -308.191406 " clip-rule="nonzero"/></clipPath><clipPath id="clip-98"><path d="M 362.253906 -308.191406 L 766.238281 78.898438 L 394.710938 466.632812 L -9.269531 79.542969 Z M 362.253906 -308.191406 " clip-rule="nonzero"/></clipPath><clipPath id="clip-99"><path d="M 167 10 L 305 10 L 305 92 L 167 92 Z M 167 10 " clip-rule="nonzero"/></clipPath><clipPath id="clip-100"><path d="M 362.253906 -308.191406 L 766.238281 78.898438 L 394.710938 466.632812 L -9.269531 79.542969 Z M 362.253906 -308.191406 " clip-rule="nonzero"/></clipPath><clipPath id="clip-101"><path d="M 362.253906 -308.191406 L 766.238281 78.898438 L 394.710938 466.632812 L -9.269531 79.542969 Z M 362.253906 -308.191406 " clip-rule="nonzero"/></clipPath><clipPath id="clip-102"><path d="M 391 11 L 529 11 L 529 93 L 391 93 Z M 391 11 " clip-rule="nonzero"/></clipPath><clipPath id="clip-103"><path d="M 362.253906 -308.191406 L 766.238281 78.898438 L 394.710938 466.632812 L -9.269531 79.542969 Z M 362.253906 -308.191406 " clip-rule="nonzero"/></clipPath><clipPath id="clip-104"><path d="M 362.253906 -308.191406 L 766.238281 78.898438 L 394.710938 466.632812 L -9.269531 79.542969 Z M 362.253906 -308.191406 " clip-rule="nonzero"/></clipPath><clipPath id="clip-105"><path d="M 615 12 L 750 12 L 750 94 L 615 94 Z M 615 12 " clip-rule="nonzero"/></clipPath><clipPath id="clip-106"><path d="M 362.253906 -308.191406 L 766.238281 78.898438 L 394.710938 466.632812 L -9.269531 79.542969 Z M 362.253906 -308.191406 " clip-rule="nonzero"/></clipPath><clipPath id="clip-107"><path d="M 362.253906 -308.191406 L 766.238281 78.898438 L 394.710938 466.632812 L -9.269531 79.542969 Z M 362.253906 -308.191406 " clip-rule="nonzero"/></clipPath></defs><g clip-path="url(#clip-0)"><g clip-path="url(#clip-1)"><g clip-path="url(#clip-2)"><path fill="rgb(39.99939%, 19.999695%, 59.999084%)" d="M 26.476562 90.335938 C 83.386719 90.589844 81.890625 10.179688 138.800781 10.4375 L 114.222656 10.324219 C 57.3125 10.070312 58.804688 90.480469 1.890625 90.226562 Z M 26.476562 90.335938 " fill-opacity="1" fill-rule="nonzero"/></g></g></g><g clip-path="url(#clip-3)"><g clip-path="url(#clip-4)"><g clip-path="url(#clip-5)"><path fill="rgb(39.99939%, 19.999695%, 59.999084%)" d="M 80.207031 90.574219 C 137.113281 90.828125 135.621094 10.417969 192.53125 10.671875 L 167.941406 10.5625 C 111.03125 10.308594 112.53125 90.71875 55.617188 90.460938 Z M 80.207031 90.574219 " fill-opacity="1" fill-rule="nonzero"/></g></g></g><g clip-path="url(#clip-6)"><g clip-path="url(#clip-7)"><g clip-path="url(#clip-8)"><path fill="rgb(39.99939%, 19.999695%, 59.999084%)" d="M 225.898438 91.230469 C 168.988281 90.972656 171.128906 10.578125 114.230469 10.320312 L 138.808594 10.433594 C 195.714844 10.6875 193.566406 91.082031 250.476562 91.339844 Z M 225.898438 91.230469 " fill-opacity="1" fill-rule="nonzero"/></g></g></g><g clip-path="url(#clip-9)"><g clip-path="url(#clip-10)"><g clip-path="url(#clip-11)"><path fill="rgb(39.99939%, 19.999695%, 59.999084%)" d="M 250.484375 91.332031 C 307.390625 91.585938 305.898438 11.175781 362.8125 11.433594 L 338.21875 11.324219 C 281.316406 11.066406 282.816406 91.476562 225.90625 91.222656 Z M 250.484375 91.332031 " fill-opacity="1" fill-rule="nonzero"/></g></g></g><g clip-path="url(#clip-12)"><g clip-path="url(#clip-13)"><g clip-path="url(#clip-14)"><path fill="rgb(39.99939%, 19.999695%, 59.999084%)" d="M 304.191406 91.589844 C 361.101562 91.84375 359.597656 11.433594 416.515625 11.691406 L 391.925781 11.578125 C 335.019531 11.324219 336.511719 91.734375 279.601562 91.476562 Z M 304.191406 91.589844 " fill-opacity="1" fill-rule="nonzero"/></g></g></g><g clip-path="url(#clip-15)"><g clip-path="url(#clip-16)"><g clip-path="url(#clip-17)"><path fill="rgb(39.99939%, 19.999695%, 59.999084%)" d="M 449.886719 92.246094 C 392.976562 91.992188 395.125 11.59375 338.21875 11.339844 L 362.808594 11.449219 C 419.714844 11.707031 417.566406 92.101562 474.484375 92.359375 Z M 449.886719 92.246094 " fill-opacity="1" fill-rule="nonzero"/></g></g></g><g clip-path="url(#clip-18)"><g clip-path="url(#clip-19)"><g clip-path="url(#clip-20)"><path fill="rgb(39.99939%, 19.999695%, 59.999084%)" d="M 474.46875 92.34375 C 531.363281 92.601562 529.871094 12.191406 586.792969 12.445312 L 562.195312 12.335938 C 505.285156 12.078125 506.777344 92.488281 449.871094 92.234375 Z M 474.46875 92.34375 " fill-opacity="1" fill-rule="nonzero"/></g></g></g><g clip-path="url(#clip-21)"><g clip-path="url(#clip-22)"><g clip-path="url(#clip-23)"><path fill="rgb(39.99939%, 19.999695%, 59.999084%)" d="M 528.175781 92.582031 C 585.082031 92.835938 583.589844 12.429688 640.5 12.683594 L 615.914062 12.574219 C 559.007812 12.316406 560.5 92.726562 503.589844 92.472656 Z M 528.175781 92.582031 " fill-opacity="1" fill-rule="nonzero"/></g></g></g><g clip-path="url(#clip-24)"><g clip-path="url(#clip-25)"><g clip-path="url(#clip-26)"><path fill="rgb(39.99939%, 19.999695%, 59.999084%)" d="M 673.882812 93.246094 C 616.972656 92.988281 619.121094 12.59375 562.214844 12.335938 L 586.808594 12.449219 C 643.710938 12.703125 641.558594 93.097656 698.484375 93.355469 Z M 673.882812 93.246094 " fill-opacity="1" fill-rule="nonzero"/></g></g></g><g clip-path="url(#clip-27)"><g clip-path="url(#clip-28)"><g clip-path="url(#clip-29)"><path fill="rgb(100%, 84.309387%, 0%)" d="M 71.089844 61.464844 L 70.988281 86.375 C 70.980469 88.253906 72.199219 89.777344 73.707031 89.785156 C 75.21875 89.789062 76.445312 88.277344 76.453125 86.402344 L 76.554688 61.488281 C 76.5625 59.609375 75.34375 58.082031 73.835938 58.078125 C 72.332031 58.070312 71.097656 59.585938 71.089844 61.464844 Z M 71.089844 61.464844 " fill-opacity="1" fill-rule="nonzero"/></g></g></g><g clip-path="url(#clip-30)"><g clip-path="url(#clip-31)"><g clip-path="url(#clip-32)"><path fill="rgb(100%, 84.309387%, 0%)" d="M 88.140625 38.140625 L 87.964844 82.125 C 87.957031 84 89.171875 85.519531 90.683594 85.527344 C 92.195312 85.535156 93.417969 84.023438 93.425781 82.148438 L 93.605469 38.167969 C 93.613281 36.285156 92.394531 34.761719 90.890625 34.753906 C 89.386719 34.746094 88.148438 36.265625 88.144531 38.140625 Z M 88.140625 38.140625 " fill-opacity="1" fill-rule="nonzero"/></g></g></g><g clip-path="url(#clip-33)"><g clip-path="url(#clip-34)"><g clip-path="url(#clip-35)"><path fill="rgb(100%, 84.309387%, 0%)" d="M 105.179688 18.96875 L 104.976562 68.613281 C 104.96875 70.488281 106.179688 72.027344 107.699219 72.03125 C 109.21875 72.039062 110.433594 70.515625 110.441406 68.636719 L 110.640625 18.996094 C 110.648438 17.113281 109.433594 15.59375 107.929688 15.585938 C 106.425781 15.578125 105.1875 17.09375 105.179688 18.96875 Z M 105.179688 18.96875 " fill-opacity="1" fill-rule="nonzero"/></g></g></g><g clip-path="url(#clip-36)"><g clip-path="url(#clip-37)"><g clip-path="url(#clip-38)"><path fill="rgb(100%, 84.309387%, 0%)" d="M 122.167969 14.042969 L 122.035156 46.597656 C 122.027344 48.476562 123.246094 50.003906 124.75 50.011719 C 126.253906 50.019531 127.492188 48.5 127.5 46.621094 L 127.632812 14.066406 C 127.640625 12.1875 126.421875 10.664062 124.910156 10.660156 C 123.398438 10.652344 122.175781 12.167969 122.167969 14.042969 Z M 122.167969 14.042969 " fill-opacity="1" fill-rule="nonzero"/></g></g></g><g clip-path="url(#clip-39)"><g clip-path="url(#clip-40)"><g clip-path="url(#clip-41)"><path fill="rgb(100%, 84.309387%, 0%)" d="M 229.839844 49.34375 L 229.6875 87.09375 C 229.679688 88.96875 230.894531 90.496094 232.40625 90.5 C 233.917969 90.507812 235.148438 88.996094 235.15625 87.117188 L 235.3125 49.367188 C 235.320312 47.5 234.097656 45.964844 232.589844 45.957031 C 231.082031 45.949219 229.847656 47.476562 229.839844 49.34375 Z M 229.839844 49.34375 " fill-opacity="1" fill-rule="nonzero"/></g></g></g><g clip-path="url(#clip-42)"><g clip-path="url(#clip-43)"><g clip-path="url(#clip-44)"><path fill="rgb(100%, 84.309387%, 0%)" d="M 212.949219 29.453125 L 212.730469 82.6875 C 212.722656 84.5625 213.941406 86.085938 215.453125 86.09375 C 216.964844 86.097656 218.195312 84.589844 218.203125 82.710938 L 218.421875 29.476562 C 218.429688 27.597656 217.210938 26.070312 215.699219 26.066406 C 214.1875 26.058594 212.957031 27.574219 212.949219 29.453125 Z M 212.949219 29.453125 " fill-opacity="1" fill-rule="nonzero"/></g></g></g><g clip-path="url(#clip-45)"><g clip-path="url(#clip-46)"><g clip-path="url(#clip-47)"><path fill="rgb(100%, 84.309387%, 0%)" d="M 196.027344 19.359375 L 195.824219 69.003906 C 195.816406 70.878906 197.039062 72.417969 198.546875 72.425781 C 200.054688 72.429688 201.289062 70.90625 201.296875 69.027344 L 201.5 19.386719 C 201.507812 17.507812 200.28125 15.984375 198.777344 15.976562 C 197.273438 15.972656 196.035156 17.484375 196.027344 19.359375 Z M 196.027344 19.359375 " fill-opacity="1" fill-rule="nonzero"/></g></g></g><g clip-path="url(#clip-48)"><g clip-path="url(#clip-49)"><g clip-path="url(#clip-50)"><path fill="rgb(100%, 84.309387%, 0%)" d="M 179.082031 14.289062 L 178.949219 46.84375 C 178.941406 48.726562 180.152344 50.253906 181.671875 50.261719 C 183.191406 50.269531 184.414062 48.75 184.421875 46.871094 L 184.554688 14.316406 C 184.5625 12.433594 183.34375 10.914062 181.832031 10.90625 C 180.320312 10.902344 179.089844 12.414062 179.082031 14.289062 Z M 179.082031 14.289062 " fill-opacity="1" fill-rule="nonzero"/></g></g></g><g clip-path="url(#clip-51)"><g clip-path="url(#clip-52)"><g clip-path="url(#clip-53)"><path fill="rgb(100%, 84.309387%, 0%)" d="M 295.078125 62.484375 L 294.976562 87.394531 C 294.96875 89.269531 296.183594 90.796875 297.695312 90.804688 C 299.207031 90.808594 300.4375 89.296875 300.445312 87.417969 L 300.546875 62.507812 C 300.554688 60.628906 299.332031 59.101562 297.828125 59.09375 C 296.320312 59.089844 295.085938 60.601562 295.078125 62.484375 Z M 295.078125 62.484375 " fill-opacity="1" fill-rule="nonzero"/></g></g></g><g clip-path="url(#clip-54)"><g clip-path="url(#clip-55)"><g clip-path="url(#clip-56)"><path fill="rgb(100%, 84.309387%, 0%)" d="M 312.152344 39.140625 L 311.972656 83.125 C 311.964844 85 313.183594 86.519531 314.695312 86.527344 C 316.207031 86.535156 317.429688 85.023438 317.4375 83.148438 L 317.617188 39.164062 C 317.625 37.285156 316.402344 35.761719 314.902344 35.753906 C 313.402344 35.746094 312.160156 37.265625 312.152344 39.140625 Z M 312.152344 39.140625 " fill-opacity="1" fill-rule="nonzero"/></g></g></g><g clip-path="url(#clip-57)"><g clip-path="url(#clip-58)"><g clip-path="url(#clip-59)"><path fill="rgb(100%, 84.309387%, 0%)" d="M 329.175781 19.96875 L 328.976562 69.613281 C 328.96875 71.488281 330.191406 73.027344 331.699219 73.03125 C 333.203125 73.039062 334.4375 71.511719 334.445312 69.636719 L 334.648438 19.992188 C 334.65625 18.113281 333.445312 16.59375 331.925781 16.585938 C 330.40625 16.578125 329.183594 18.09375 329.175781 19.96875 Z M 329.175781 19.96875 " fill-opacity="1" fill-rule="nonzero"/></g></g></g><g clip-path="url(#clip-60)"><g clip-path="url(#clip-61)"><g clip-path="url(#clip-62)"><path fill="rgb(100%, 84.309387%, 0%)" d="M 346.171875 15.046875 L 346.039062 47.601562 C 346.03125 49.480469 347.246094 51.007812 348.746094 51.015625 C 350.246094 51.023438 351.488281 49.503906 351.496094 47.625 L 351.628906 15.070312 C 351.636719 13.191406 350.417969 11.667969 348.90625 11.664062 C 347.398438 11.65625 346.179688 13.167969 346.171875 15.046875 Z M 346.171875 15.046875 " fill-opacity="1" fill-rule="nonzero"/></g></g></g><g clip-path="url(#clip-63)"><g clip-path="url(#clip-64)"><g clip-path="url(#clip-65)"><path fill="rgb(100%, 84.309387%, 0%)" d="M 453.84375 50.359375 L 453.6875 88.109375 C 453.679688 89.984375 454.890625 91.511719 456.398438 91.519531 C 457.90625 91.523438 459.140625 90.011719 459.148438 88.132812 L 459.300781 50.382812 C 459.308594 48.515625 458.101562 46.980469 456.578125 46.972656 C 455.058594 46.964844 453.851562 48.492188 453.84375 50.359375 Z M 453.84375 50.359375 " fill-opacity="1" fill-rule="nonzero"/></g></g></g><g clip-path="url(#clip-66)"><g clip-path="url(#clip-67)"><g clip-path="url(#clip-68)"><path fill="rgb(100%, 84.309387%, 0%)" d="M 436.945312 30.453125 L 436.726562 83.691406 C 436.71875 85.566406 437.929688 87.085938 439.449219 87.09375 C 440.96875 87.101562 442.167969 85.589844 442.175781 83.714844 L 442.394531 30.476562 C 442.402344 28.597656 441.203125 27.074219 439.695312 27.066406 C 438.1875 27.058594 436.953125 28.574219 436.945312 30.453125 Z M 436.945312 30.453125 " fill-opacity="1" fill-rule="nonzero"/></g></g></g><g clip-path="url(#clip-69)"><g clip-path="url(#clip-70)"><g clip-path="url(#clip-71)"><path fill="rgb(100%, 84.309387%, 0%)" d="M 420.019531 20.378906 L 419.816406 70.023438 C 419.808594 71.898438 421.03125 73.4375 422.539062 73.441406 C 424.046875 73.449219 425.28125 71.921875 425.289062 70.046875 L 425.492188 20.402344 C 425.5 18.523438 424.277344 17.003906 422.769531 16.996094 C 421.261719 16.988281 420.027344 18.503906 420.019531 20.378906 Z M 420.019531 20.378906 " fill-opacity="1" fill-rule="nonzero"/></g></g></g><g clip-path="url(#clip-72)"><g clip-path="url(#clip-73)"><g clip-path="url(#clip-74)"><path fill="rgb(100%, 84.309387%, 0%)" d="M 403.078125 15.300781 L 402.945312 47.859375 C 402.9375 49.738281 404.148438 51.265625 405.664062 51.273438 C 407.1875 51.28125 408.40625 49.761719 408.414062 47.882812 L 408.546875 15.328125 C 408.554688 13.449219 407.332031 11.925781 405.828125 11.917969 C 404.320312 11.914062 403.085938 13.425781 403.078125 15.304688 Z M 403.078125 15.300781 " fill-opacity="1" fill-rule="nonzero"/></g></g></g><g clip-path="url(#clip-75)"><g clip-path="url(#clip-76)"><g clip-path="url(#clip-77)"><path fill="rgb(100%, 84.309387%, 0%)" d="M 519.078125 63.492188 L 518.976562 88.40625 C 518.96875 90.28125 520.195312 91.804688 521.699219 91.8125 C 523.203125 91.820312 524.441406 90.304688 524.449219 88.429688 L 524.550781 63.515625 C 524.554688 61.636719 523.335938 60.113281 521.828125 60.105469 C 520.320312 60.097656 519.085938 61.613281 519.078125 63.492188 Z M 519.078125 63.492188 " fill-opacity="1" fill-rule="nonzero"/></g></g></g><g clip-path="url(#clip-78)"><g clip-path="url(#clip-79)"><g clip-path="url(#clip-80)"><path fill="rgb(100%, 84.309387%, 0%)" d="M 536.144531 40.15625 L 535.964844 84.140625 C 535.957031 86.015625 537.171875 87.535156 538.6875 87.542969 C 540.183594 87.550781 541.414062 86.039062 541.421875 84.164062 L 541.601562 40.183594 C 541.609375 38.300781 540.390625 36.777344 538.894531 36.769531 C 537.378906 36.765625 536.152344 38.28125 536.144531 40.15625 Z M 536.144531 40.15625 " fill-opacity="1" fill-rule="nonzero"/></g></g></g><g clip-path="url(#clip-81)"><g clip-path="url(#clip-82)"><g clip-path="url(#clip-83)"><path fill="rgb(100%, 84.309387%, 0%)" d="M 553.179688 20.984375 L 552.976562 70.628906 C 552.96875 72.503906 554.191406 74.042969 555.699219 74.046875 C 557.207031 74.054688 558.441406 72.527344 558.449219 70.652344 L 558.652344 21.011719 C 558.660156 19.128906 557.4375 17.609375 555.929688 17.601562 C 554.421875 17.59375 553.1875 19.109375 553.179688 20.984375 Z M 553.179688 20.984375 " fill-opacity="1" fill-rule="nonzero"/></g></g></g><g clip-path="url(#clip-84)"><g clip-path="url(#clip-85)"><g clip-path="url(#clip-86)"><path fill="rgb(100%, 84.309387%, 0%)" d="M 570.164062 16.050781 L 570.03125 48.605469 C 570.023438 50.484375 571.242188 52.015625 572.738281 52.023438 C 574.253906 52.027344 575.480469 50.511719 575.488281 48.628906 L 575.621094 16.074219 C 575.628906 14.195312 574.414062 12.675781 572.898438 12.667969 C 571.402344 12.660156 570.171875 14.175781 570.164062 16.050781 Z M 570.164062 16.050781 " fill-opacity="1" fill-rule="nonzero"/></g></g></g><g clip-path="url(#clip-87)"><g clip-path="url(#clip-88)"><g clip-path="url(#clip-89)"><path fill="rgb(100%, 84.309387%, 0%)" d="M 677.832031 51.363281 L 677.679688 89.113281 C 677.671875 90.988281 678.882812 92.515625 680.386719 92.523438 C 681.894531 92.527344 683.128906 91.015625 683.136719 89.136719 L 683.292969 51.386719 C 683.300781 49.519531 682.074219 47.984375 680.570312 47.976562 C 679.066406 47.96875 677.839844 49.496094 677.832031 51.363281 Z M 677.832031 51.363281 " fill-opacity="1" fill-rule="nonzero"/></g></g></g><g clip-path="url(#clip-90)"><g clip-path="url(#clip-91)"><g clip-path="url(#clip-92)"><path fill="rgb(100%, 84.309387%, 0%)" d="M 660.957031 31.476562 L 660.738281 84.714844 C 660.730469 86.589844 661.945312 88.109375 663.460938 88.117188 C 664.976562 88.125 666.179688 86.613281 666.1875 84.738281 L 666.40625 31.503906 C 666.414062 29.621094 665.214844 28.097656 663.707031 28.089844 C 662.199219 28.085938 660.964844 29.597656 660.957031 31.476562 Z M 660.957031 31.476562 " fill-opacity="1" fill-rule="nonzero"/></g></g></g><g clip-path="url(#clip-93)"><g clip-path="url(#clip-94)"><g clip-path="url(#clip-95)"><path fill="rgb(100%, 84.309387%, 0%)" d="M 644.027344 21.394531 L 643.824219 71.039062 C 643.816406 72.914062 645.042969 74.453125 646.546875 74.460938 C 648.050781 74.464844 649.292969 72.941406 649.300781 71.0625 L 649.5 21.421875 C 649.507812 19.539062 648.28125 18.019531 646.777344 18.011719 C 645.269531 18.003906 644.035156 19.519531 644.027344 21.394531 Z M 644.027344 21.394531 " fill-opacity="1" fill-rule="nonzero"/></g></g></g><g clip-path="url(#clip-96)"><g clip-path="url(#clip-97)"><g clip-path="url(#clip-98)"><path fill="rgb(100%, 84.309387%, 0%)" d="M 627.066406 16.300781 L 626.933594 48.855469 C 626.925781 50.738281 628.140625 52.265625 629.65625 52.273438 C 631.171875 52.28125 632.402344 50.761719 632.410156 48.882812 L 632.542969 16.328125 C 632.546875 14.445312 631.324219 12.925781 629.816406 12.917969 C 628.308594 12.914062 627.074219 14.425781 627.066406 16.300781 Z M 627.066406 16.300781 " fill-opacity="1" fill-rule="nonzero"/></g></g></g><g clip-path="url(#clip-99)"><g clip-path="url(#clip-100)"><g clip-path="url(#clip-101)"><path fill="rgb(39.99939%, 19.999695%, 59.999084%)" d="M 279.601562 91.484375 C 222.691406 91.226562 224.839844 10.832031 167.929688 10.574219 L 192.519531 10.683594 C 249.425781 10.941406 247.273438 91.335938 304.1875 91.59375 Z M 279.601562 91.484375 " fill-opacity="1" fill-rule="nonzero"/></g></g></g><g clip-path="url(#clip-102)"><g clip-path="url(#clip-103)"><g clip-path="url(#clip-104)"><path fill="rgb(39.99939%, 19.999695%, 59.999084%)" d="M 503.59375 92.484375 C 446.683594 92.230469 448.832031 11.832031 391.921875 11.574219 L 416.511719 11.6875 C 473.417969 11.941406 471.273438 92.339844 528.179688 92.59375 Z M 503.59375 92.484375 " fill-opacity="1" fill-rule="nonzero"/></g></g></g><g clip-path="url(#clip-105)"><g clip-path="url(#clip-106)"><g clip-path="url(#clip-107)"><path fill="rgb(39.99939%, 19.999695%, 59.999084%)" d="M 727.589844 93.480469 C 670.679688 93.226562 672.828125 12.832031 615.914062 12.574219 L 640.5 12.683594 C 697.40625 12.9375 695.257812 93.335938 752.171875 93.589844 Z M 727.589844 93.480469 " fill-opacity="1" fill-rule="nonzero"/></g></g></g></svg>